<svg width="16" height="16" viewBox="0 0 16 16" fill="none" xmlns="http://www.w3.org/2000/svg">
<g clip-path="url(#clip0_751_3618)">
<path d="M6.73299 9.2666C7.45888 9.99226 8.2995 10.5932 9.22099 11.0453C9.35867 11.1085 9.51379 11.1229 9.66078 11.0862C9.80778 11.0495 9.93788 10.9638 10.0297 10.8433L10.2663 10.5333C10.3905 10.3677 10.5516 10.2333 10.7367 10.1407C10.9218 10.0481 11.126 9.99994 11.333 9.99994H13.333C13.6866 9.99994 14.0258 10.1404 14.2758 10.3905C14.5258 10.6405 14.6663 10.9796 14.6663 11.3333V13.3333C14.6663 13.6869 14.5258 14.026 14.2758 14.2761C14.0258 14.5261 13.6866 14.6666 13.333 14.6666C11.7571 14.6666 10.1967 14.3562 8.74077 13.7532C7.28485 13.1501 5.96197 12.2662 4.84766 11.1519" stroke="white" stroke-width="1.33333" stroke-linecap="round" stroke-linejoin="round"/>
<path d="M14.6663 1.3335L1.33301 14.6668" stroke="white" stroke-width="1.33333" stroke-linecap="round" stroke-linejoin="round"/>
<path d="M3.17301 9.05483C1.97034 7.14126 1.33253 4.92695 1.33301 2.66683C1.33301 2.31321 1.47348 1.97407 1.72353 1.72402C1.97358 1.47397 2.31272 1.3335 2.66634 1.3335H4.66634C5.01996 1.3335 5.3591 1.47397 5.60915 1.72402C5.8592 1.97407 5.99967 2.31321 5.99967 2.66683V4.66683C5.99967 4.87382 5.95148 5.07797 5.85891 5.26311C5.76634 5.44825 5.63194 5.6093 5.46634 5.7335L5.15434 5.9675C5.03195 6.06095 4.94569 6.19389 4.9102 6.34373C4.87472 6.49357 4.8922 6.65108 4.95967 6.7895C5.01189 6.89563 5.06613 7.00076 5.12234 7.10483" stroke="white" stroke-width="1.33333" stroke-linecap="round" stroke-linejoin="round"/>
</g>
<defs>
<clipPath id="clip0_751_3618">
<rect width="16" height="16" fill="white"/>
</clipPath>
</defs>
</svg>
