<svg width="16" height="13" viewBox="0 0 16 13" fill="none" xmlns="http://www.w3.org/2000/svg">
<path d="M1.33361 5.33298L0.74444 5.92215L0.155273 5.33298L0.74444 4.74381L1.33361 5.33298ZM15.5003 11.9996C15.5003 12.2207 15.4125 12.4326 15.2562 12.5889C15.0999 12.7452 14.888 12.833 14.6669 12.833C14.4459 12.833 14.234 12.7452 14.0777 12.5889C13.9214 12.4326 13.8336 12.2207 13.8336 11.9996H15.5003ZM4.91111 10.0888L0.74444 5.92215L1.92277 4.74381L6.08944 8.91048L4.91111 10.0888ZM0.74444 4.74381L4.91111 0.577148L6.08944 1.75548L1.92277 5.92215L0.74444 4.74381ZM1.33361 4.49965H9.66694V6.16631H1.33361V4.49965ZM15.5003 10.333V11.9996H13.8336V10.333H15.5003ZM9.66694 4.49965C11.214 4.49965 12.6978 5.11423 13.7917 6.20819C14.8857 7.30215 15.5003 8.78588 15.5003 10.333H13.8336C13.8336 9.22791 13.3946 8.1681 12.6132 7.3867C11.8318 6.6053 10.772 6.16631 9.66694 6.16631V4.49965Z" fill="black"/>
</svg>
