<svg width="33" height="33" viewBox="0 0 33 33" fill="none" xmlns="http://www.w3.org/2000/svg">
<g clip-path="url(#clip0_138_2418)">
<path d="M15.4867 32.4999C15.0498 32.4984 14.6185 32.4019 14.2227 32.2173C13.576 31.9293 13.0567 31.4153 12.7621 30.7716C12.4675 30.1279 12.4179 29.3989 12.6227 28.7213L14.704 21.8333H9.79999C9.1752 21.834 8.55891 21.6884 8.00053 21.4081C7.44215 21.1278 6.9572 20.7205 6.58454 20.2191C6.21189 19.7176 5.96189 19.1357 5.85459 18.5202C5.74729 17.9047 5.78567 17.2726 5.96666 16.6746L9.99866 3.34128C10.2444 2.51658 10.751 1.79384 11.4425 1.28153C12.1339 0.769218 12.9728 0.494969 13.8333 0.499944H18.7573C19.317 0.500413 19.8682 0.636379 20.3639 0.896224C20.8596 1.15607 21.285 1.53207 21.6038 1.99208C21.9226 2.4521 22.1252 2.98246 22.1945 3.53783C22.2637 4.09321 22.1974 4.65709 22.0013 5.18128L19.7573 11.1666H23.1667C23.8934 11.1666 24.6064 11.3645 25.2291 11.7392C25.8519 12.1138 26.3607 12.6511 26.7011 13.2932C27.0415 13.9353 27.2005 14.658 27.1611 15.3836C27.1216 16.1093 26.8853 16.8105 26.4773 17.4119L17.944 31.1453C17.6802 31.5584 17.3171 31.8989 16.8878 32.1355C16.4585 32.3721 15.9768 32.4974 15.4867 32.4999ZM13.8333 3.16661C13.547 3.16633 13.2682 3.25824 13.0381 3.42873C12.8081 3.59923 12.639 3.83925 12.556 4.11328L8.52399 17.4466C8.46362 17.6458 8.45074 17.8564 8.48637 18.0615C8.522 18.2666 8.60516 18.4605 8.72919 18.6277C8.85322 18.7949 9.01467 18.9307 9.20061 19.0243C9.38655 19.1179 9.59183 19.1666 9.79999 19.1666H16.5C16.7082 19.1666 16.9134 19.2154 17.0994 19.3089C17.2853 19.4025 17.4468 19.5384 17.5708 19.7055C17.6948 19.8727 17.778 20.0666 17.8136 20.2717C17.8492 20.4768 17.8364 20.6874 17.776 20.8866L15.18 29.4759C15.168 29.5076 15.1627 29.5413 15.1644 29.5751C15.1661 29.6088 15.1749 29.6419 15.19 29.6721C15.2052 29.7023 15.2265 29.729 15.2525 29.7506C15.2786 29.7721 15.3088 29.788 15.3413 29.7973C15.3708 29.8162 15.4039 29.8287 15.4385 29.834C15.4731 29.8393 15.5085 29.8373 15.5422 29.8282C15.576 29.819 15.6075 29.8028 15.6347 29.7808C15.6619 29.7587 15.6841 29.7311 15.7 29.6999L24.2333 15.9666C24.3825 15.7642 24.4715 15.5237 24.4899 15.273C24.5083 15.0222 24.4554 14.7713 24.3373 14.5493C24.2279 14.333 24.0604 14.1515 23.8537 14.025C23.6469 13.8986 23.409 13.8322 23.1667 13.8333H17.8333C17.6178 13.8334 17.4055 13.7813 17.2146 13.6814C17.0236 13.5816 16.8597 13.4369 16.7369 13.2598C16.6141 13.0827 16.536 12.8785 16.5094 12.6647C16.4827 12.4508 16.5084 12.2337 16.584 12.0319L19.504 4.24528C19.5489 4.12455 19.5639 3.99478 19.5479 3.86699C19.5318 3.7392 19.4852 3.61718 19.4119 3.51128C19.3386 3.40538 19.2408 3.31875 19.1268 3.25874C19.0129 3.19874 18.8861 3.16713 18.7573 3.16661H13.8333Z" fill="white"/>
</g>
<defs>
<clipPath id="clip0_138_2418">
<rect width="32" height="32" fill="white" transform="translate(0.5 0.5)"/>
</clipPath>
</defs>
</svg>
