<svg width="25" height="24" viewBox="0 0 25 24" fill="none" xmlns="http://www.w3.org/2000/svg">
<path d="M12.6563 5.00005C12.6575 4.60008 12.5787 4.20391 12.4245 3.83485C12.2703 3.46579 12.0439 3.13128 11.7586 2.851C11.4733 2.57072 11.1347 2.35032 10.763 2.20278C10.3912 2.05524 9.9937 1.98353 9.59382 1.99186C9.19394 2.0002 8.79976 2.08841 8.43446 2.25132C8.06917 2.41422 7.74014 2.64853 7.46673 2.94045C7.19331 3.23238 6.98103 3.57604 6.84238 3.9512C6.70372 4.32637 6.64148 4.72548 6.65932 5.12505C6.07153 5.27619 5.52583 5.5591 5.06356 5.95236C4.60128 6.34562 4.23456 6.83892 3.99117 7.3949C3.74777 7.95087 3.63408 8.55494 3.65871 9.16136C3.68334 9.76778 3.84564 10.3606 4.13332 10.8951C3.6275 11.306 3.22975 11.8343 2.97466 12.434C2.71958 13.0337 2.61488 13.6866 2.66969 14.336C2.72449 14.9854 2.93714 15.6116 3.28913 16.1601C3.64112 16.7085 4.12179 17.1627 4.68932 17.4831C4.61924 18.0253 4.66106 18.5761 4.81221 19.1016C4.96336 19.627 5.22062 20.1159 5.56811 20.538C5.9156 20.9601 6.34593 21.3065 6.83254 21.5558C7.31915 21.8051 7.8517 21.952 8.3973 21.9874C8.9429 22.0228 9.48997 21.946 10.0047 21.7617C10.5195 21.5774 10.991 21.2895 11.3901 20.9158C11.7892 20.5421 12.1075 20.0906 12.3253 19.5891C12.5431 19.0876 12.6557 18.5468 12.6563 18V5.00005Z" stroke="white" stroke-width="2" stroke-linecap="round" stroke-linejoin="round"/>
<path d="M12.6563 5.00005C12.6551 4.60008 12.7339 4.20391 12.8881 3.83485C13.0422 3.46579 13.2687 3.13128 13.554 2.851C13.8393 2.57072 14.1778 2.35032 14.5496 2.20278C14.9214 2.05524 15.3189 1.98353 15.7188 1.99186C16.1187 2.0002 16.5128 2.08841 16.8781 2.25132C17.2434 2.41422 17.5724 2.64853 17.8459 2.94045C18.1193 3.23238 18.3316 3.57604 18.4702 3.9512C18.6089 4.32637 18.6711 4.72548 18.6533 5.12505C19.2411 5.27619 19.7868 5.5591 20.249 5.95236C20.7113 6.34562 21.078 6.83892 21.3214 7.3949C21.5648 7.95087 21.6785 8.55494 21.6539 9.16136C21.6292 9.76778 21.4669 10.3606 21.1793 10.8951C21.6851 11.306 22.0828 11.8343 22.3379 12.434C22.593 13.0337 22.6977 13.6866 22.6429 14.336C22.5881 14.9854 22.3754 15.6116 22.0235 16.1601C21.6715 16.7085 21.1908 17.1627 20.6233 17.4831C20.6933 18.0253 20.6515 18.5761 20.5004 19.1016C20.3492 19.627 20.092 20.1159 19.7445 20.538C19.397 20.9601 18.9667 21.3065 18.48 21.5558C17.9934 21.8051 17.4609 21.952 16.9153 21.9874C16.3697 22.0228 15.8226 21.946 15.3079 21.7617C14.7931 21.5774 14.3216 21.2895 13.9225 20.9158C13.5234 20.5421 13.2051 20.0906 12.9873 19.5891C12.7695 19.0876 12.6568 18.5468 12.6563 18V5.00005Z" stroke="white" stroke-width="2" stroke-linecap="round" stroke-linejoin="round"/>
<path d="M15.6562 13C14.8167 12.7047 14.0836 12.167 13.5496 11.455C13.0156 10.743 12.7047 9.88867 12.6562 9C12.6078 9.88867 12.2969 10.743 11.7629 11.455C11.2289 12.167 10.4958 12.7047 9.65625 13" stroke="white" stroke-width="2" stroke-linecap="round" stroke-linejoin="round"/>
<path d="M18.2554 6.5C18.4974 6.08059 18.6343 5.60882 18.6544 5.125" stroke="white" stroke-width="2" stroke-linecap="round" stroke-linejoin="round"/>
<path d="M6.65918 5.125C6.67895 5.60873 6.81551 6.0805 7.05718 6.5" stroke="white" stroke-width="2" stroke-linecap="round" stroke-linejoin="round"/>
<path d="M4.1333 10.896C4.31624 10.747 4.512 10.6145 4.7183 10.5" stroke="white" stroke-width="2" stroke-linecap="round" stroke-linejoin="round"/>
<path d="M20.5942 10.5C20.8005 10.6145 20.9963 10.747 21.1792 10.896" stroke="white" stroke-width="2" stroke-linecap="round" stroke-linejoin="round"/>
<path d="M6.65621 17.9999C5.96704 18.0002 5.28948 17.8225 4.68921 17.4839" stroke="white" stroke-width="2" stroke-linecap="round" stroke-linejoin="round"/>
<path d="M20.6232 17.4839C20.023 17.8225 19.3454 18.0002 18.6562 17.9999" stroke="white" stroke-width="2" stroke-linecap="round" stroke-linejoin="round"/>
</svg>
