<svg width="33" height="33" viewBox="0 0 33 33" fill="none" xmlns="http://www.w3.org/2000/svg">
<g clip-path="url(#clip0_138_2427)">
<path d="M32.5 15.1667C32.5 13.076 31.4973 11.1133 29.8333 9.86133V9.83333C29.8333 7.304 28.064 5.18133 25.6973 4.636C25.152 2.27067 23.028 0.5 20.5 0.5C18.908 0.5 17.4773 1.20133 16.5 2.30933C15.5227 1.2 14.092 0.5 12.5 0.5C9.972 0.5 7.848 2.26933 7.30267 4.636C4.93733 5.18133 3.16667 7.304 3.16667 9.83333V9.86133C1.50267 11.1133 0.5 13.0747 0.5 15.1667C0.5 16.348 0.813333 17.4827 1.41467 18.5C0.814667 19.5173 0.5 20.652 0.5 21.8333C0.5 24.0813 1.644 26.1587 3.52267 27.388C4.48133 30.4253 7.272 32.5 10.5 32.5C12.9773 32.5 15.172 31.2653 16.5 29.3773C17.828 31.264 20.0227 32.5 22.5 32.5C25.7293 32.5 28.52 30.4253 29.4773 27.388C31.3547 26.1587 32.5 24.0813 32.5 21.8333C32.5 20.652 32.1867 19.5173 31.5853 18.5C32.1853 17.4827 32.5 16.348 32.5 15.1667ZM10.5 29.8333C8.32133 29.8333 6.456 28.3467 5.96533 26.2173C5.87867 25.8427 5.63467 25.524 5.296 25.3427C3.98267 24.6387 3.16667 23.2947 3.16667 21.8347C3.16667 20.9347 3.47867 20.072 4.072 19.3387C4.46667 18.8493 4.46667 18.152 4.072 17.6627C3.48 16.9307 3.16667 16.068 3.16667 15.1667C3.16667 13.74 3.95467 12.4107 5.224 11.696C5.71733 11.4187 5.98133 10.86 5.88267 10.3027C5.856 10.1493 5.83333 9.99467 5.83333 9.83333C5.83333 8.36267 7.02933 7.16667 8.5 7.16667C9.23733 7.16667 9.83333 6.56933 9.83333 5.83333C9.83333 4.36267 11.0293 3.16667 12.5 3.16667C13.9707 3.16667 15.1667 4.36267 15.1667 5.83333V11.1667H12.1427C11.6813 10.3693 10.82 9.83333 9.83333 9.83333C8.36 9.83333 7.16667 11.0267 7.16667 12.5C7.16667 13.9733 8.36 15.1667 9.83333 15.1667C10.82 15.1667 11.6813 14.6307 12.1427 13.8333H15.1667V20.5H12.1427C11.6813 19.7027 10.82 19.1667 9.83333 19.1667C8.36 19.1667 7.16667 20.36 7.16667 21.8333C7.16667 23.3067 8.36 24.5 9.83333 24.5C10.82 24.5 11.6813 23.964 12.1427 23.1667H15.1667V25.1667C15.1667 27.74 13.0733 29.8333 10.5 29.8333ZM28.928 19.3373C29.52 20.0693 29.8333 20.932 29.8333 21.8333C29.8333 23.2947 29.0187 24.6387 27.704 25.3413C27.3653 25.5227 27.1213 25.8413 27.0347 26.216C26.544 28.3453 24.6773 29.832 22.5 29.832C19.9267 29.832 17.8333 27.7387 17.8333 25.1653V19.1653H20.5C22.7053 19.1653 24.5 17.3707 24.5 15.1653V14.808C25.2973 14.3467 25.8333 13.4853 25.8333 12.4987C25.8333 11.0253 24.64 9.832 23.1667 9.832C21.6933 9.832 20.5 11.0253 20.5 12.4987C20.5 13.4853 21.036 14.3467 21.8333 14.808V15.1653C21.8333 15.9 21.236 16.4987 20.5 16.4987H17.8333V5.83333C17.8333 4.36267 19.0293 3.16667 20.5 3.16667C21.9707 3.16667 23.1667 4.36267 23.1667 5.83333C23.1667 6.56933 23.7627 7.16667 24.5 7.16667C25.9707 7.16667 27.1667 8.36267 27.1667 9.83333C27.1667 9.99467 27.1427 10.1493 27.1173 10.3027C27.0187 10.86 27.2827 11.4187 27.776 11.696C29.0453 12.4093 29.8333 13.74 29.8333 15.1667C29.8333 16.0667 29.5213 16.9293 28.928 17.6627C28.5333 18.152 28.5333 18.848 28.928 19.3373Z" fill="white"/>
</g>
<defs>
<clipPath id="clip0_138_2427">
<rect width="32" height="32" fill="white" transform="translate(0.5 0.5)"/>
</clipPath>
</defs>
</svg>
