<svg width="33" height="33" viewBox="0 0 33 33" fill="none" xmlns="http://www.w3.org/2000/svg">
<g clip-path="url(#clip0_1_7420)">
<path d="M32.4734 3.19723V8.53056C32.4734 8.88418 32.3329 9.22332 32.0828 9.47337C31.8328 9.72342 31.4937 9.86389 31.14 9.86389C30.7864 9.86389 30.4473 9.72342 30.1972 9.47337C29.9472 9.22332 29.8067 8.88418 29.8067 8.53056V5.11323L22.74 12.1426C22.4879 12.3848 22.1507 12.5183 21.801 12.5144C21.4514 12.5104 21.1173 12.3692 20.8708 12.1212C20.6242 11.8733 20.4849 11.5384 20.4829 11.1888C20.4809 10.8391 20.6164 10.5027 20.86 10.2519L27.9534 3.19723H24.4734C24.1197 3.19723 23.7806 3.05675 23.5306 2.8067C23.2805 2.55666 23.14 2.21752 23.14 1.86389C23.14 1.51027 23.2805 1.17113 23.5306 0.921086C23.7806 0.671037 24.1197 0.530561 24.4734 0.530561H29.8067C30.5139 0.530561 31.1922 0.811513 31.6923 1.31161C32.1924 1.81171 32.4734 2.48998 32.4734 3.19723ZM31.2667 22.8492C32.0394 23.624 32.4733 24.6736 32.4733 25.7679C32.4733 26.8621 32.0394 27.9117 31.2667 28.6866L30.0507 30.0866C19.1294 40.5372 -7.44263 13.9732 2.8507 3.01989L4.3827 1.68656C5.15883 0.935589 6.19916 0.519976 7.27908 0.529456C8.35901 0.538935 9.39188 0.972747 10.1547 1.73723C10.1947 1.77856 12.6654 4.98923 12.6654 4.98923C13.3983 5.75916 13.8064 6.78185 13.8049 7.84483C13.8034 8.90781 13.3924 9.92935 12.6574 10.6972L11.112 12.6399C11.9665 14.716 13.2228 16.6029 14.8087 18.192C16.3946 19.7812 18.279 21.0412 20.3534 21.8999L22.3067 20.3466C23.0745 19.6119 24.0958 19.2012 25.1584 19.1997C26.2211 19.1982 27.2435 19.6061 28.0134 20.3386C28.0134 20.3386 31.2254 22.8092 31.2667 22.8492ZM29.4334 24.7879C29.4334 24.7879 26.2427 22.3319 26.2014 22.2919C25.9267 22.0195 25.5555 21.8667 25.1687 21.8667C24.7819 21.8667 24.4107 22.0195 24.136 22.2919C24.1 22.3266 21.4107 24.4706 21.4107 24.4706C21.2295 24.6148 21.0138 24.7094 20.7849 24.7449C20.556 24.7804 20.3218 24.7557 20.1054 24.6732C17.4163 23.6733 14.9739 22.1065 12.9438 20.0792C10.9138 18.0519 9.34367 15.6116 8.34004 12.9239C8.25224 12.7054 8.22387 12.4675 8.25783 12.2345C8.29179 12.0015 8.38686 11.7816 8.53337 11.5972C8.53337 11.5972 10.676 8.90789 10.712 8.87189C10.9844 8.59721 11.1372 8.22605 11.1372 7.83923C11.1372 7.45241 10.9844 7.08125 10.712 6.80656C10.672 6.76656 8.21604 3.57456 8.21604 3.57456C7.93741 3.3244 7.57364 3.19028 7.1993 3.1997C6.82496 3.20912 6.4684 3.36136 6.2027 3.62523L4.6707 4.95856C-2.85463 14.0012 20.176 35.7559 28.1 28.2679L29.316 26.8679C29.6027 26.6048 29.7754 26.2402 29.7973 25.8517C29.8192 25.4633 29.6887 25.0816 29.4334 24.7879Z" fill="white"/>
</g>
<defs>
<clipPath id="clip0_1_7420">
<rect width="32" height="32" fill="white" transform="translate(0.5 0.5)"/>
</clipPath>
</defs>
</svg>
