<svg width="33" height="33" viewBox="0 0 33 33" fill="none" xmlns="http://www.w3.org/2000/svg">
<g clip-path="url(#clip0_1_7409)">
<path d="M20.4729 9.86388V4.53054C20.4729 4.17692 20.6134 3.83778 20.8634 3.58774C21.1135 3.33769 21.4526 3.19721 21.8063 3.19721C22.1599 3.19721 22.499 3.33769 22.7491 3.58774C22.9991 3.83778 23.1396 4.17692 23.1396 4.53054V8.01188C23.9796 7.16654 29.4076 1.71054 30.1969 0.921211C30.3199 0.793864 30.467 0.692288 30.6297 0.622409C30.7924 0.552531 30.9674 0.515749 31.1444 0.51421C31.3214 0.512672 31.497 0.546408 31.6609 0.613449C31.8247 0.68049 31.9736 0.779494 32.0988 0.904684C32.224 1.02987 32.323 1.17874 32.39 1.34261C32.4571 1.50647 32.4908 1.68204 32.4893 1.85908C32.4877 2.03612 32.4509 2.21108 32.3811 2.37375C32.3112 2.53642 32.2096 2.68355 32.0823 2.80654C31.2929 3.59588 25.8929 9.02654 25.0583 9.86388H28.4729C28.8265 9.86388 29.1657 10.0044 29.4157 10.2544C29.6658 10.5045 29.8063 10.8436 29.8063 11.1972C29.8063 11.5508 29.6658 11.89 29.4157 12.14C29.1657 12.3901 28.8265 12.5305 28.4729 12.5305H23.1396C22.4323 12.5305 21.7541 12.2496 21.254 11.7495C20.7539 11.2494 20.4729 10.5711 20.4729 9.86388ZM31.2663 22.8492C32.0389 23.624 32.4728 24.6736 32.4728 25.7679C32.4728 26.8621 32.0389 27.9117 31.2663 28.6865L30.0503 30.0865C19.1289 40.5372 -7.44174 13.9745 2.85026 3.01988L4.38359 1.68654C5.15911 0.935272 6.19923 0.51953 7.27892 0.529261C8.35862 0.538993 9.39108 0.973415 10.1529 1.73854C10.1943 1.77854 12.6636 4.98921 12.6636 4.98921C13.3942 5.7606 13.8006 6.78305 13.7992 7.84548C13.7977 8.9079 13.3883 9.92921 12.6556 10.6985L11.1116 12.6399C11.9662 14.7159 13.2226 16.6027 14.8085 18.1918C16.3944 19.7809 18.2786 21.041 20.3529 21.8999L22.3063 20.3465C23.0741 19.6119 24.0953 19.2012 25.158 19.1997C26.2207 19.1982 27.2431 19.606 28.0129 20.3385C28.0129 20.3385 31.2249 22.8092 31.2663 22.8492ZM29.4329 24.7879C29.4329 24.7879 26.2423 22.3319 26.2009 22.2919C25.9262 22.0195 25.5551 21.8667 25.1683 21.8667C24.7814 21.8667 24.4103 22.0195 24.1356 22.2919C24.0996 22.3265 21.4103 24.4705 21.4103 24.4705C21.229 24.6148 21.0133 24.7094 20.7845 24.7449C20.5556 24.7804 20.3214 24.7557 20.1049 24.6732C17.4162 23.6728 14.9739 22.1061 12.9437 20.0791C10.9135 18.0522 9.34289 15.6124 8.33826 12.9252C8.24919 12.7058 8.22015 12.4667 8.25413 12.2323C8.28811 11.998 8.38388 11.7769 8.53159 11.5919C8.53159 11.5919 10.6756 8.90654 10.7116 8.87188C10.9839 8.59719 11.1368 8.22603 11.1368 7.83921C11.1368 7.45239 10.9839 7.08123 10.7116 6.80654C10.6716 6.76654 8.21559 3.57321 8.21559 3.57321C7.93679 3.32322 7.57293 3.18934 7.19859 3.19901C6.82425 3.20868 6.46778 3.36116 6.20226 3.62521L4.66893 4.95854C-2.85374 14.0025 20.1756 35.7545 28.0996 28.2692L29.3156 26.8679C29.6023 26.6048 29.775 26.2402 29.7969 25.8517C29.8188 25.4632 29.6882 25.0815 29.4329 24.7879Z" fill="white"/>
</g>
<defs>
<clipPath id="clip0_1_7409">
<rect width="32" height="32" fill="white" transform="translate(0.5 0.5)"/>
</clipPath>
</defs>
</svg>
