<svg width="25" height="25" viewBox="0 0 25 25" fill="none" xmlns="http://www.w3.org/2000/svg">
<path d="M13.9326 17.5543C14.1391 17.6492 14.3718 17.6708 14.5923 17.6158C14.8128 17.5607 15.0079 17.4322 15.1456 17.2513L15.5006 16.7863C15.6869 16.5379 15.9284 16.3363 16.2062 16.1975C16.4839 16.0586 16.7901 15.9863 17.1006 15.9863H20.1006C20.631 15.9863 21.1397 16.197 21.5148 16.5721C21.8899 16.9472 22.1006 17.4559 22.1006 17.9863V20.9863C22.1006 21.5168 21.8899 22.0255 21.5148 22.4005C21.1397 22.7756 20.631 22.9863 20.1006 22.9863C15.3267 22.9863 10.7483 21.0899 7.37266 17.7143C3.99701 14.3386 2.10059 9.76022 2.10059 4.98633C2.10059 4.4559 2.3113 3.94719 2.68637 3.57211C3.06145 3.19704 3.57015 2.98633 4.10059 2.98633H7.10059C7.63102 2.98633 8.13973 3.19704 8.5148 3.57211C8.88987 3.94719 9.10059 4.4559 9.10059 4.98633V7.98633C9.10059 8.29682 9.0283 8.60304 8.88944 8.88076C8.75059 9.15847 8.54898 9.40003 8.30059 9.58633L7.83259 9.93733C7.649 10.0775 7.51961 10.2769 7.46638 10.5017C7.41315 10.7264 7.43937 10.9627 7.54059 11.1703C8.90727 13.9462 11.155 16.1911 13.9326 17.5543Z" stroke="url(#paint0_linear_1_4131)" stroke-width="1.33247" stroke-linecap="round" stroke-linejoin="round"/>
<defs>
<linearGradient id="paint0_linear_1_4131" x1="12.1006" y1="2.98633" x2="12.1006" y2="22.9863" gradientUnits="userSpaceOnUse">
<stop stop-color="#8266D4"/>
<stop offset="1" stop-color="#41288A"/>
</linearGradient>
</defs>
</svg>
