<svg width="21" height="20" viewBox="0 0 21 20" fill="none" xmlns="http://www.w3.org/2000/svg">
<g clip-path="url(#clip0_1_2993)">
<path d="M10.5 20C4.98583 20 0.5 15.5142 0.5 10C0.5 4.48583 4.98583 0 10.5 0C16.0142 0 20.5 4.48583 20.5 10C20.5 15.5142 16.0142 20 10.5 20ZM10.5 1.66667C5.905 1.66667 2.16667 5.405 2.16667 10C2.16667 14.595 5.905 18.3333 10.5 18.3333C15.095 18.3333 18.8333 14.595 18.8333 10C18.8333 5.405 15.095 1.66667 10.5 1.66667ZM12.5833 13.6083C12.9825 13.3783 13.1192 12.8683 12.8883 12.47L11.3333 9.77667V5C11.3333 4.54 10.9608 4.16667 10.5 4.16667C10.0392 4.16667 9.66667 4.54 9.66667 5V10C9.66667 10.1467 9.705 10.29 9.77833 10.4167L11.445 13.3033C11.6 13.5708 11.8792 13.72 12.1675 13.72C12.3092 13.72 12.4525 13.6842 12.5833 13.6083Z" fill="url(#paint0_linear_1_2993)"/>
</g>
<defs>
<linearGradient id="paint0_linear_1_2993" x1="10.5" y1="0" x2="10.5" y2="20" gradientUnits="userSpaceOnUse">
<stop stop-color="#8266D4"/>
<stop offset="1" stop-color="#41288A"/>
</linearGradient>
<clipPath id="clip0_1_2993">
<rect width="20" height="20" fill="white" transform="translate(0.5)"/>
</clipPath>
</defs>
</svg>
