<svg width="19" height="19" viewBox="0 0 19 19" fill="none" xmlns="http://www.w3.org/2000/svg">
<g clip-path="url(#clip0_1_2735)">
<path d="M10.25 15.5C11.2442 15.4988 12.1973 15.1034 12.9003 14.4003C13.6033 13.6973 13.9988 12.7442 14 11.75V5.18226C14.0012 4.78803 13.9241 4.39749 13.7732 4.03328C13.6223 3.66906 13.4006 3.33842 13.121 3.06051L11.4395 1.37901C11.1616 1.09939 10.831 0.877715 10.4667 0.726828C10.1025 0.575941 9.71198 0.498847 9.31775 0.500013H5.75C4.7558 0.501204 3.80267 0.896675 3.09967 1.59968C2.39666 2.30268 2.00119 3.25582 2 4.25001V11.75C2.00119 12.7442 2.39666 13.6973 3.09967 14.4003C3.80267 15.1034 4.7558 15.4988 5.75 15.5H10.25ZM3.5 11.75V4.25001C3.5 3.65328 3.73705 3.08098 4.15901 2.65902C4.58097 2.23707 5.15326 2.00001 5.75 2.00001C5.75 2.00001 9.43925 2.01051 9.5 2.01801V3.50001C9.5 3.89784 9.65804 4.27937 9.93934 4.56067C10.2206 4.84198 10.6022 5.00001 11 5.00001H12.482C12.4895 5.06076 12.5 11.75 12.5 11.75C12.5 12.3468 12.2629 12.919 11.841 13.341C11.419 13.763 10.8467 14 10.25 14H5.75C5.15326 14 4.58097 13.763 4.15901 13.341C3.73705 12.919 3.5 12.3468 3.5 11.75ZM17 6.50001V14.75C16.9988 15.7442 16.6033 16.6973 15.9003 17.4003C15.1973 18.1034 14.2442 18.4988 13.25 18.5H6.5C6.30109 18.5 6.11032 18.421 5.96967 18.2803C5.82902 18.1397 5.75 17.9489 5.75 17.75C5.75 17.5511 5.82902 17.3603 5.96967 17.2197C6.11032 17.079 6.30109 17 6.5 17H13.25C13.8467 17 14.419 16.763 14.841 16.341C15.2629 15.919 15.5 15.3468 15.5 14.75V6.50001C15.5 6.3011 15.579 6.11034 15.7197 5.96968C15.8603 5.82903 16.0511 5.75001 16.25 5.75001C16.4489 5.75001 16.6397 5.82903 16.7803 5.96968C16.921 6.11034 17 6.3011 17 6.50001Z" fill="url(#paint0_linear_1_2735)"/>
</g>
<defs>
<linearGradient id="paint0_linear_1_2735" x1="9.5" y1="0.5" x2="9.5" y2="18.5" gradientUnits="userSpaceOnUse">
<stop stop-color="#8266D4"/>
<stop offset="1" stop-color="#41288A"/>
</linearGradient>
<clipPath id="clip0_1_2735">
<rect width="18" height="18" fill="white" transform="translate(0.5 0.5)"/>
</clipPath>
</defs>
</svg>
