<svg width="13" height="13" viewBox="0 0 13 13" fill="none" xmlns="http://www.w3.org/2000/svg">
<path d="M12.4998 0.499818C12.3123 0.312347 12.058 0.207031 11.7928 0.207031C11.5277 0.207031 11.2733 0.312347 11.0858 0.499818L6.49982 5.08582L1.91382 0.499818C1.72629 0.312347 1.47198 0.207031 1.20682 0.207031C0.941654 0.207031 0.687346 0.312347 0.499818 0.499818C0.312347 0.687346 0.207031 0.941654 0.207031 1.20682C0.207031 1.47198 0.312347 1.72629 0.499818 1.91382L5.08582 6.49982L0.499818 11.0858C0.312347 11.2733 0.207031 11.5277 0.207031 11.7928C0.207031 12.058 0.312347 12.3123 0.499818 12.4998C0.687346 12.6873 0.941654 12.7926 1.20682 12.7926C1.47198 12.7926 1.72629 12.6873 1.91382 12.4998L6.49982 7.91382L11.0858 12.4998C11.2733 12.6873 11.5277 12.7926 11.7928 12.7926C12.058 12.7926 12.3123 12.6873 12.4998 12.4998C12.6873 12.3123 12.7926 12.058 12.7926 11.7928C12.7926 11.5277 12.6873 11.2733 12.4998 11.0858L7.91382 6.49982L12.4998 1.91382C12.6873 1.72629 12.7926 1.47198 12.7926 1.20682C12.7926 0.941654 12.6873 0.687346 12.4998 0.499818Z" fill="#CF1742"/>
</svg>
