<svg width="10" height="10" viewBox="0 0 10 10" fill="none" xmlns="http://www.w3.org/2000/svg">
<path d="M9.49986 0.50084C9.35922 0.360237 9.16849 0.28125 8.96961 0.28125C8.77074 0.28125 8.58001 0.360237 8.43937 0.50084L4.99986 3.94034L1.56036 0.50084C1.41972 0.360237 1.22899 0.28125 1.03011 0.28125C0.83124 0.28125 0.640509 0.360237 0.499863 0.50084C0.35926 0.641486 0.280273 0.832217 0.280273 1.03109C0.280273 1.22996 0.35926 1.42069 0.499863 1.56134L3.93936 5.00084L0.499863 8.44034C0.35926 8.58099 0.280273 8.77172 0.280273 8.97059C0.280273 9.16946 0.35926 9.3602 0.499863 9.50084C0.640509 9.64145 0.83124 9.72043 1.03011 9.72043C1.22899 9.72043 1.41972 9.64145 1.56036 9.50084L4.99986 6.06134L8.43937 9.50084C8.58001 9.64145 8.77074 9.72043 8.96961 9.72043C9.16849 9.72043 9.35922 9.64145 9.49986 9.50084C9.64047 9.3602 9.71945 9.16946 9.71945 8.97059C9.71945 8.77172 9.64047 8.58099 9.49986 8.44034L6.06036 5.00084L9.49986 1.56134C9.64047 1.42069 9.71945 1.22996 9.71945 1.03109C9.71945 0.832217 9.64047 0.641486 9.49986 0.50084Z" fill="white"/>
</svg>
