<svg width="21" height="20" viewBox="0 0 21 20" fill="none" xmlns="http://www.w3.org/2000/svg">
<g clip-path="url(#clip0_1_3001)">
<path d="M10.5 0C8.52219 0 6.58879 0.58649 4.9443 1.6853C3.29981 2.78412 2.01809 4.3459 1.26121 6.17317C0.504333 8.00043 0.306299 10.0111 0.692152 11.9509C1.078 13.8907 2.03041 15.6725 3.42894 17.0711C4.82746 18.4696 6.60929 19.422 8.5491 19.8079C10.4889 20.1937 12.4996 19.9957 14.3268 19.2388C16.1541 18.4819 17.7159 17.2002 18.8147 15.5557C19.9135 13.9112 20.5 11.9778 20.5 10C20.4971 7.34872 19.4426 4.80684 17.5679 2.9321C15.6932 1.05736 13.1513 0.00286757 10.5 0ZM10.5 18.3333C8.85183 18.3333 7.24066 17.8446 5.87025 16.9289C4.49984 16.0132 3.43174 14.7117 2.80101 13.189C2.17028 11.6663 2.00525 9.99076 2.32679 8.37425C2.64834 6.75774 3.44201 5.27288 4.60745 4.10744C5.77289 2.94201 7.25774 2.14833 8.87425 1.82679C10.4908 1.50525 12.1663 1.67027 13.689 2.301C15.2118 2.93173 16.5132 3.99984 17.4289 5.37025C18.3446 6.74066 18.8333 8.35182 18.8333 10C18.8309 12.2094 17.9522 14.3276 16.3899 15.8899C14.8276 17.4522 12.7094 18.3309 10.5 18.3333Z" fill="#CF1742"/>
<path d="M10.5003 4.16699C10.2793 4.16699 10.0674 4.25479 9.91107 4.41107C9.75479 4.56735 9.66699 4.77931 9.66699 5.00033V11.667C9.66699 11.888 9.75479 12.1 9.91107 12.2562C10.0674 12.4125 10.2793 12.5003 10.5003 12.5003C10.7213 12.5003 10.9333 12.4125 11.0896 12.2562C11.2459 12.1 11.3337 11.888 11.3337 11.667V5.00033C11.3337 4.77931 11.2459 4.56735 11.0896 4.41107C10.9333 4.25479 10.7213 4.16699 10.5003 4.16699Z" fill="#CF1742"/>
<path d="M11.3337 15.0003C11.3337 14.5401 10.9606 14.167 10.5003 14.167C10.0401 14.167 9.66699 14.5401 9.66699 15.0003C9.66699 15.4606 10.0401 15.8337 10.5003 15.8337C10.9606 15.8337 11.3337 15.4606 11.3337 15.0003Z" fill="#CF1742"/>
</g>
<defs>
<clipPath id="clip0_1_3001">
<rect width="20" height="20" fill="white" transform="translate(0.5)"/>
</clipPath>
</defs>
</svg>
