<svg width="24" height="25" viewBox="0 0 24 25" fill="none" xmlns="http://www.w3.org/2000/svg">
<g clip-path="url(#clip0_1_5337)">
<path d="M14.0005 24.5C13.7841 24.5 13.5736 24.4298 13.4005 24.3L9.40047 21.3C9.27627 21.2069 9.17547 21.0861 9.10604 20.9472C9.03661 20.8084 9.00047 20.6552 9.00047 20.5V14.88L1.98447 6.987C1.48619 6.42488 1.16085 5.73082 1.04755 4.98823C0.934249 4.24565 1.03781 3.48615 1.34579 2.80101C1.65377 2.11588 2.15306 1.53426 2.78365 1.12607C3.41424 0.717873 4.14929 0.500474 4.90047 0.5H19.1005C19.8516 0.500881 20.5865 0.718639 21.2168 1.12711C21.8471 1.53557 22.3461 2.11737 22.6537 2.80259C22.9614 3.4878 23.0646 4.24727 22.951 4.98975C22.8375 5.73222 22.5119 6.4261 22.0135 6.988L15.0005 14.88V23.5C15.0005 23.7652 14.8951 24.0196 14.7076 24.2071C14.52 24.3946 14.2657 24.5 14.0005 24.5ZM11.0005 20L13.0005 21.5V14.5C13.0007 14.2552 13.0907 14.0189 13.2535 13.836L20.5215 5.659C20.7638 5.38508 20.922 5.04704 20.9769 4.68545C21.0319 4.32387 20.9813 3.9541 20.8312 3.62056C20.6812 3.28701 20.4381 3.00386 20.1311 2.80509C19.8241 2.60632 19.4662 2.50038 19.1005 2.5H4.90047C4.53492 2.50055 4.17729 2.60655 3.87047 2.80527C3.56366 3.00399 3.32068 3.28699 3.17068 3.62035C3.02068 3.95371 2.97002 4.32326 3.0248 4.68468C3.07957 5.0461 3.23744 5.38405 3.47947 5.658L10.7485 13.836C10.9109 14.019 11.0005 14.2553 11.0005 14.5V20Z" fill="black"/>
</g>
<defs>
<clipPath id="clip0_1_5337">
<rect width="24" height="24" fill="white" transform="translate(0 0.5)"/>
</clipPath>
</defs>
</svg>
