<svg width="42" height="43" viewBox="0 0 42 43" fill="none" xmlns="http://www.w3.org/2000/svg">
<g clip-path="url(#clip0_550_1145)">
<path d="M26.25 5.3405V2.25C26.25 1.28225 25.466 0.5 24.5 0.5C23.534 0.5 22.75 1.28225 22.75 2.25V4H19.25V2.25C19.25 1.28225 18.466 0.5 17.5 0.5C16.534 0.5 15.75 1.28225 15.75 2.25V4H12.25V2.25C12.25 1.28225 11.466 0.5 10.5 0.5C9.534 0.5 8.75 1.28225 8.75 2.25V4H5.25V2.25C5.25 1.28225 4.466 0.5 3.5 0.5C2.534 0.5 1.75 1.28225 1.75 2.25V5.3405C0.67725 6.303 0 7.69775 0 9.25V33.75C0 38.5747 3.92525 42.5 8.75 42.5H19.25C24.0747 42.5 28 38.5747 28 33.75V9.25C28 7.6995 27.3228 6.303 26.25 5.3405ZM24.5 33.75C24.5 36.6445 22.1445 39 19.25 39H8.75C5.8555 39 3.5 36.6445 3.5 33.75V9.25C3.5 8.284 4.28575 7.5 5.25 7.5H22.75C23.7143 7.5 24.5 8.284 24.5 9.25V33.75ZM21 14.5C21 15.4677 20.216 16.25 19.25 16.25H8.75C7.784 16.25 7 15.4677 7 14.5C7 13.5323 7.784 12.75 8.75 12.75H19.25C20.216 12.75 21 13.5323 21 14.5ZM21 21.5C21 22.4678 20.216 23.25 19.25 23.25H8.75C7.784 23.25 7 22.4678 7 21.5C7 20.5322 7.784 19.75 8.75 19.75H19.25C20.216 19.75 21 20.5322 21 21.5ZM15.75 28.5C15.75 29.4678 14.966 30.25 14 30.25H8.75C7.784 30.25 7 29.4678 7 28.5C7 27.5322 7.784 26.75 8.75 26.75H14C14.966 26.75 15.75 27.5322 15.75 28.5ZM36.75 0.5C33.8555 0.5 31.5 2.8555 31.5 5.75V35.0765C31.5 36.921 32.2473 38.7235 33.551 40.0255L35.5127 41.9873C35.854 42.3285 36.302 42.5 36.75 42.5C37.198 42.5 37.646 42.3285 37.9873 41.9873L39.949 40.0255C41.2527 38.7235 42 36.921 42 35.0765V5.75C42 2.8555 39.6445 0.5 36.75 0.5ZM38.5 35.0765C38.5 35.997 38.1273 36.9 37.4745 37.551L36.75 38.2755L36.0255 37.551C35.3727 36.9 35 35.997 35 35.0765V5.75C35 4.784 35.7858 4 36.75 4C37.7142 4 38.5 4.784 38.5 5.75V35.0765Z" fill="white"/>
</g>
<defs>
<clipPath id="clip0_550_1145">
<rect width="42" height="42" fill="white" transform="translate(0 0.5)"/>
</clipPath>
</defs>
</svg>
