<svg width="25" height="25" viewBox="0 0 25 25" fill="none" xmlns="http://www.w3.org/2000/svg">
<path d="M12.1006 7.98633V21.9863" stroke="url(#paint0_linear_1_4198)" stroke-width="1.33247" stroke-linecap="round" stroke-linejoin="round"/>
<path d="M3.10059 18.9863C2.83537 18.9863 2.58102 18.881 2.39348 18.6934C2.20594 18.5059 2.10059 18.2515 2.10059 17.9863V4.98633C2.10059 4.72111 2.20594 4.46676 2.39348 4.27922C2.58102 4.09168 2.83537 3.98633 3.10059 3.98633H8.10059C9.16145 3.98633 10.1789 4.40776 10.929 5.1579C11.6792 5.90805 12.1006 6.92546 12.1006 7.98633C12.1006 6.92546 12.522 5.90805 13.2722 5.1579C14.0223 4.40776 15.0397 3.98633 16.1006 3.98633H21.1006C21.3658 3.98633 21.6202 4.09168 21.8077 4.27922C21.9952 4.46676 22.1006 4.72111 22.1006 4.98633V17.9863C22.1006 18.2515 21.9952 18.5059 21.8077 18.6934C21.6202 18.881 21.3658 18.9863 21.1006 18.9863H15.1006C14.3049 18.9863 13.5419 19.3024 12.9793 19.865C12.4167 20.4276 12.1006 21.1907 12.1006 21.9863C12.1006 21.1907 11.7845 20.4276 11.2219 19.865C10.6593 19.3024 9.89624 18.9863 9.10059 18.9863H3.10059Z" stroke="url(#paint1_linear_1_4198)" stroke-width="1.33247" stroke-linecap="round" stroke-linejoin="round"/>
<defs>
<linearGradient id="paint0_linear_1_4198" x1="12.6006" y1="7.98633" x2="12.6006" y2="21.9863" gradientUnits="userSpaceOnUse">
<stop stop-color="#8266D4"/>
<stop offset="1" stop-color="#41288A"/>
</linearGradient>
<linearGradient id="paint1_linear_1_4198" x1="12.1006" y1="3.98633" x2="12.1006" y2="21.9863" gradientUnits="userSpaceOnUse">
<stop stop-color="#8266D4"/>
<stop offset="1" stop-color="#41288A"/>
</linearGradient>
</defs>
</svg>
