<svg width="17" height="25" viewBox="0 0 17 25" fill="none" xmlns="http://www.w3.org/2000/svg">
<path d="M8.23932 24.1148C7.9117 24.1136 7.58824 24.0413 7.29132 23.9028C6.80633 23.6868 6.41682 23.3013 6.19588 22.8185C5.97494 22.3358 5.93777 21.789 6.09132 21.2808L7.65232 16.1148H3.97432C3.50573 16.1154 3.04351 16.0061 2.62473 15.7959C2.20594 15.5857 1.84223 15.2802 1.56274 14.9041C1.28324 14.528 1.09575 14.0916 1.01527 13.63C0.934799 13.1684 0.963584 12.6943 1.09932 12.2458L4.12332 2.2458C4.30765 1.62728 4.68761 1.08522 5.20617 0.700986C5.72474 0.316751 6.35393 0.111064 6.99932 0.114796H10.6923C11.1121 0.115147 11.5255 0.217122 11.8973 0.412006C12.269 0.606889 12.5881 0.888887 12.8272 1.2339C13.0663 1.57891 13.2183 1.97668 13.2702 2.39321C13.3221 2.80974 13.2724 3.23265 13.1253 3.6258L11.4423 8.1148H13.9993C14.5444 8.11475 15.0791 8.26321 15.5462 8.5442C16.0132 8.8252 16.3949 9.22813 16.6502 9.7097C16.9054 10.1913 17.0247 10.7333 16.9951 11.2776C16.9656 11.8218 16.7883 12.3477 16.4823 12.7988L10.0823 23.0988C9.88448 23.4086 9.61214 23.664 9.29019 23.8415C8.96824 24.0189 8.60695 24.1129 8.23932 24.1148ZM6.99932 2.1148C6.78457 2.11459 6.57545 2.18352 6.40292 2.31139C6.23039 2.43926 6.1036 2.61927 6.04132 2.8248L3.01732 12.8248C2.97205 12.9742 2.96238 13.1322 2.98911 13.286C3.01583 13.4398 3.0782 13.5852 3.17122 13.7106C3.26424 13.836 3.38533 13.9379 3.52479 14.008C3.66424 14.0782 3.8182 14.1148 3.97432 14.1148H8.99932C9.15545 14.1148 9.3094 14.1514 9.44886 14.2215C9.58832 14.2917 9.7094 14.3936 9.80242 14.519C9.89544 14.6444 9.95781 14.7898 9.98454 14.9436C10.0113 15.0974 10.0016 15.2554 9.95632 15.4048L8.00932 21.8468C8.00032 21.8705 7.99634 21.8958 7.99763 21.9211C7.99893 21.9465 8.00547 21.9712 8.01685 21.9939C8.02823 22.0166 8.04419 22.0366 8.06372 22.0528C8.08325 22.0689 8.10593 22.0809 8.13032 22.0878C8.15243 22.102 8.17726 22.1113 8.20321 22.1153C8.22917 22.1193 8.25567 22.1178 8.28101 22.111C8.30635 22.1041 8.32998 22.092 8.35035 22.0754C8.37073 22.0588 8.38741 22.0382 8.39932 22.0148L14.7993 11.7148C14.9112 11.563 14.9779 11.3826 14.9918 11.1946C15.0056 11.0065 14.9659 10.8183 14.8773 10.6518C14.7953 10.4896 14.6697 10.3535 14.5146 10.2586C14.3595 10.1638 14.1811 10.114 13.9993 10.1148H9.99932C9.8377 10.1149 9.67846 10.0758 9.53524 10.0009C9.39202 9.92601 9.2691 9.81751 9.17699 9.6847C9.08488 9.55189 9.02633 9.39874 9.00636 9.23836C8.98639 9.07797 9.00559 8.91514 9.06232 8.7638L11.2523 2.9238C11.286 2.83325 11.2973 2.73592 11.2852 2.64008C11.2732 2.54424 11.2382 2.45272 11.1832 2.3733C11.1283 2.29387 11.0549 2.2289 10.9695 2.1839C10.884 2.13889 10.7889 2.11519 10.6923 2.1148H6.99932Z" fill="url(#paint0_linear_1_2046)"/>
<defs>
<linearGradient id="paint0_linear_1_2046" x1="8.98513" y1="0.114746" x2="8.98513" y2="24.1148" gradientUnits="userSpaceOnUse">
<stop stop-color="#8266D4"/>
<stop offset="1" stop-color="#41288A"/>
</linearGradient>
</defs>
</svg>
