<svg width="19" height="19" viewBox="0 0 19 19" fill="none" xmlns="http://www.w3.org/2000/svg">
<g clip-path="url(#clip0_1_2013)">
<path d="M6.37595 12.2421C6.20345 12.0696 6.04145 11.8806 5.8952 11.6811C5.65145 11.3466 5.72495 10.8771 6.0602 10.6333C6.3947 10.3896 6.86345 10.4631 7.10795 10.7976C7.2047 10.9311 7.31345 11.0593 7.4357 11.1808C8.03795 11.7831 8.8382 12.1146 9.68945 12.1146C10.5407 12.1146 11.3417 11.7831 11.9432 11.1808L16.0682 7.05585C17.311 5.8131 17.311 3.79035 16.0682 2.5476C14.8255 1.30485 12.8027 1.30485 11.56 2.5476L10.7665 3.3411C10.4732 3.63435 9.9992 3.63435 9.70595 3.3411C9.4127 3.04785 9.4127 2.57385 9.70595 2.2806L10.4995 1.4871C12.3272 -0.341402 15.301 -0.341402 17.1287 1.4871C18.9565 3.31485 18.9565 6.2886 17.1287 8.11635L13.0037 12.2413C12.1187 13.1271 10.9412 13.6146 9.68945 13.6146C8.4377 13.6146 7.2602 13.1271 6.37595 12.2421ZM5.18945 18.1146C6.44195 18.1146 7.6187 17.6271 8.5037 16.7413L9.2972 15.9478C9.59045 15.6553 9.59045 15.1806 9.2972 14.8873C9.0047 14.5941 8.52995 14.5948 8.2367 14.8873L7.44245 15.6808C6.8402 16.2831 6.03995 16.6146 5.1887 16.6146C4.33745 16.6146 3.5372 16.2831 2.93495 15.6808C2.3327 15.0786 2.0012 14.2783 2.0012 13.4271C2.0012 12.5758 2.3327 11.7748 2.93495 11.1733L7.05995 7.04835C7.6622 6.4461 8.46245 6.1146 9.3137 6.1146C10.165 6.1146 10.966 6.4461 11.5675 7.04835C11.6875 7.1691 11.797 7.29735 11.8945 7.43085C12.1375 7.7661 12.6062 7.8411 12.9422 7.5966C13.2775 7.35285 13.3517 6.8841 13.108 6.54885C12.9655 6.35235 12.8042 6.1641 12.6287 5.9886C11.743 5.1021 10.5655 4.6146 9.3137 4.6146C8.06195 4.6146 6.88445 5.1021 5.99945 5.98785L1.8752 10.1128C0.989453 10.9978 0.501953 12.1753 0.501953 13.4271C0.501953 14.6788 0.989453 15.8563 1.8752 16.7413C2.7602 17.6271 3.93695 18.1146 5.18945 18.1146Z" fill="url(#paint0_linear_1_2013)"/>
</g>
<defs>
<linearGradient id="paint0_linear_1_2013" x1="9.50074" y1="0.115723" x2="9.50074" y2="18.1146" gradientUnits="userSpaceOnUse">
<stop stop-color="#8266D4"/>
<stop offset="1" stop-color="#41288A"/>
</linearGradient>
<clipPath id="clip0_1_2013">
<rect width="18" height="18" fill="white" transform="translate(0.5 0.114746)"/>
</clipPath>
</defs>
</svg>
