<svg width="64" height="41" viewBox="0 0 64 41" fill="none" xmlns="http://www.w3.org/2000/svg">
<g clip-path="url(#clip0_138_1953)">
<path d="M63.6217 29.6402L38.4931 5.13929C37.7699 4.43414 36.7998 4.03947 35.7897 4.03947C32.314 4.03947 30.5981 8.26369 33.0892 10.6874L60.058 36.9274C61.3572 38.1915 60.4623 40.3947 58.6496 40.3947H9.75214C8.68081 40.3947 7.65335 39.9691 6.89581 39.2115L1.18313 33.4989C0.425584 32.7413 0 31.7139 0 30.6425V10.7535L25.1285 35.2554C25.8518 35.9606 26.8219 36.3552 27.8321 36.3552C31.3076 36.3552 33.0236 32.1311 30.5325 29.7073L3.56364 3.46733C2.2644 2.20319 3.15936 0 4.97212 0H53.8695C54.9408 0 55.9683 0.425585 56.7259 1.18313L62.4385 6.89581C63.1961 7.65335 63.6217 8.68081 63.6217 9.75214V29.6402Z" fill="url(#paint0_linear_138_1953)"/>
</g>
<defs>
<linearGradient id="paint0_linear_138_1953" x1="31.8108" y1="0" x2="31.8108" y2="40.3947" gradientUnits="userSpaceOnUse">
<stop stop-color="white"/>
<stop offset="1" stop-color="white"/>
</linearGradient>
<clipPath id="clip0_138_1953">
<rect width="63.6217" height="40.3947" fill="white"/>
</clipPath>
</defs>
</svg>
