<svg width="33" height="33" viewBox="0 0 33 33" fill="none" xmlns="http://www.w3.org/2000/svg">
<g clip-path="url(#clip0_1_7430)">
<path d="M24.5002 12.5851C24.5004 12.0488 24.3944 11.5177 24.1885 11.0225C23.9825 10.5273 23.6806 10.0778 23.3002 9.69977C22.5217 8.9569 21.4869 8.54244 20.4108 8.54244C19.3348 8.54244 18.3 8.9569 17.5215 9.69977L1.70017 25.5251C0.978066 26.2994 0.584763 27.3238 0.603156 28.3824C0.621549 29.441 1.0502 30.4511 1.79877 31.1999C2.54734 31.9486 3.55736 32.3775 4.61596 32.3961C5.67456 32.4148 6.69904 32.0217 7.47351 31.2998L23.3002 15.4744C23.6812 15.096 23.9835 14.6459 24.1895 14.1499C24.3954 13.654 24.501 13.1221 24.5002 12.5851ZM5.58817 29.4171C5.31864 29.674 4.96055 29.8174 4.58817 29.8174C4.2158 29.8174 3.85771 29.674 3.58817 29.4171C3.3234 29.1517 3.1747 28.792 3.1747 28.4171C3.1747 28.0422 3.3234 27.6826 3.58817 27.4171L13.9468 17.0571L15.9535 19.0638L5.58817 29.4171ZM21.4175 13.5878L17.8335 17.1731L15.8335 15.1664L19.4188 11.5824C19.5466 11.4364 19.7031 11.3182 19.8784 11.2351C20.0538 11.1521 20.2443 11.1059 20.4383 11.0994C20.6322 11.093 20.8254 11.1264 21.0059 11.1977C21.1864 11.269 21.3503 11.3766 21.4875 11.5138C21.6247 11.651 21.7323 11.8149 21.8036 11.9954C21.8748 12.1759 21.9083 12.3691 21.9019 12.563C21.8954 12.7569 21.8492 12.9475 21.7661 13.1228C21.6831 13.2982 21.5648 13.4546 21.4188 13.5824L21.4175 13.5878ZM6.98417 4.30644L9.05084 3.71711L9.64017 1.65044C9.73512 1.31882 9.93545 1.02713 10.2109 0.819479C10.4863 0.611829 10.8219 0.499512 11.1668 0.499512C11.5118 0.499512 11.8473 0.611829 12.1228 0.819479C12.3982 1.02713 12.5986 1.31882 12.6935 1.65044L13.2828 3.71711L15.3495 4.30644C15.6811 4.40138 15.9728 4.60172 16.1805 4.87716C16.3881 5.1526 16.5004 5.48816 16.5004 5.83311C16.5004 6.17805 16.3881 6.51361 16.1805 6.78905C15.9728 7.06449 15.6811 7.26483 15.3495 7.35977L13.2828 7.94911L12.6935 10.0158C12.5986 10.3474 12.3982 10.6391 12.1228 10.8467C11.8473 11.0544 11.5118 11.1667 11.1668 11.1667C10.8219 11.1667 10.4863 11.0544 10.2109 10.8467C9.93545 10.6391 9.73512 10.3474 9.64017 10.0158L9.05084 7.94911L6.98417 7.35977C6.65255 7.26483 6.36086 7.06449 6.15321 6.78905C5.94556 6.51361 5.83325 6.17805 5.83325 5.83311C5.83325 5.48816 5.94556 5.1526 6.15321 4.87716C6.36086 4.60172 6.65255 4.40138 6.98417 4.30644ZM31.3495 23.3598L29.2828 23.9491L28.6935 26.0158C28.5986 26.3474 28.3982 26.6391 28.1228 26.8467C27.8474 27.0544 27.5118 27.1667 27.1668 27.1667C26.8219 27.1667 26.4863 27.0544 26.2109 26.8467C25.9355 26.6391 25.7351 26.3474 25.6402 26.0158L25.0508 23.9491L22.9842 23.3598C22.6526 23.2648 22.3609 23.0645 22.1532 22.7891C21.9456 22.5136 21.8332 22.178 21.8332 21.8331C21.8332 21.4882 21.9456 21.1526 22.1532 20.8772C22.3609 20.6017 22.6526 20.4014 22.9842 20.3064L25.0508 19.7171L25.6402 17.6504C25.7351 17.3188 25.9355 17.0271 26.2109 16.8195C26.4863 16.6118 26.8219 16.4995 27.1668 16.4995C27.5118 16.4995 27.8474 16.6118 28.1228 16.8195C28.3982 17.0271 28.5986 17.3188 28.6935 17.6504L29.2828 19.7171L31.3495 20.3064C31.6811 20.4014 31.9728 20.6017 32.1805 20.8772C32.3881 21.1526 32.5004 21.4882 32.5004 21.8331C32.5004 22.178 32.3881 22.5136 32.1805 22.7891C31.9728 23.0645 31.6811 23.2648 31.3495 23.3598ZM24.1735 3.83311L25.9815 3.31711L26.5002 1.50644C26.5846 1.21819 26.7601 0.965068 27.0005 0.784989C27.2409 0.60491 27.5332 0.507579 27.8335 0.507579C28.1339 0.507579 28.4261 0.60491 28.6665 0.784989C28.9069 0.965068 29.0824 1.21819 29.1668 1.50644L29.6828 3.31444L31.4908 3.83044C31.7791 3.91485 32.0322 4.0904 32.2123 4.33078C32.3924 4.57116 32.4897 4.86342 32.4897 5.16377C32.4897 5.46412 32.3924 5.75638 32.2123 5.99676C32.0322 6.23714 31.7791 6.41269 31.4908 6.49711L29.6828 7.01311L29.1668 8.82511C29.0824 9.11335 28.9069 9.36648 28.6665 9.54655C28.4261 9.72663 28.1339 9.82397 27.8335 9.82397C27.5332 9.82397 27.2409 9.72663 27.0005 9.54655C26.7601 9.36648 26.5846 9.11335 26.5002 8.82511L25.9842 7.01844L24.1735 6.49977C23.8853 6.41536 23.6321 6.23981 23.4521 5.99943C23.272 5.75905 23.1747 5.46679 23.1747 5.16644C23.1747 4.86609 23.272 4.57383 23.4521 4.33345C23.6321 4.09307 23.8853 3.91752 24.1735 3.83311Z" fill="white"/>
</g>
<defs>
<clipPath id="clip0_1_7430">
<rect width="32" height="32" fill="white" transform="translate(0.5 0.5)"/>
</clipPath>
</defs>
</svg>
