<svg width="22" height="20" viewBox="0 0 22 20" fill="none" xmlns="http://www.w3.org/2000/svg">
<path d="M2.464 14.8036C1 13.6326 1 12.7466 1 8.97559C1 5.20459 1 3.31859 2.464 2.14759C3.93 0.975586 6.286 0.975586 11 0.975586C15.714 0.975586 18.071 0.975586 19.535 2.14759C20.999 3.31959 21 5.20459 21 8.97559C21 12.7466 21 13.6326 19.535 14.8036C18.072 15.9756 15.714 15.9756 11 15.9756C8.49 15.9756 7.2 17.7136 5 18.9756V15.7636C3.906 15.6006 3.101 15.3136 2.464 14.8036Z" stroke="url(#paint0_linear_1_2695)" stroke-width="1.5" stroke-linecap="round" stroke-linejoin="round"/>
<defs>
<linearGradient id="paint0_linear_1_2695" x1="11" y1="0.975586" x2="11" y2="18.9756" gradientUnits="userSpaceOnUse">
<stop stop-color="#8266D4"/>
<stop offset="1" stop-color="#41288A"/>
</linearGradient>
</defs>
</svg>
