<svg width="16" height="16" viewBox="0 0 16 16" fill="none" xmlns="http://www.w3.org/2000/svg">
<path d="M8 12.6665V14.6665" stroke="#0A0A0A" stroke-width="1.33333" stroke-linecap="round" stroke-linejoin="round"/>
<path d="M12.6663 6.6665V7.99984C12.6663 9.23751 12.1747 10.4245 11.2995 11.2997C10.4243 12.1748 9.23735 12.6665 7.99967 12.6665C6.762 12.6665 5.57501 12.1748 4.69984 11.2997C3.82467 10.4245 3.33301 9.23751 3.33301 7.99984V6.6665" stroke="#0A0A0A" stroke-width="1.33333" stroke-linecap="round" stroke-linejoin="round"/>
<path d="M10 3.3335C10 2.22893 9.10457 1.3335 8 1.3335C6.89543 1.3335 6 2.22893 6 3.3335V8.00016C6 9.10473 6.89543 10.0002 8 10.0002C9.10457 10.0002 10 9.10473 10 8.00016V3.3335Z" stroke="#0A0A0A" stroke-width="1.33333" stroke-linecap="round" stroke-linejoin="round"/>
</svg>
