<svg width="24" height="25" viewBox="0 0 24 25" fill="none" xmlns="http://www.w3.org/2000/svg">
<g clip-path="url(#clip0_1_2533)">
<path d="M17 14.1145C17 14.3797 16.8946 14.6341 16.7071 14.8216C16.5196 15.0092 16.2652 15.1145 16 15.1145H8C7.73478 15.1145 7.48043 15.0092 7.29289 14.8216C7.10536 14.6341 7 14.3797 7 14.1145C7 13.8493 7.10536 13.595 7.29289 13.4074C7.48043 13.2199 7.73478 13.1145 8 13.1145H16C16.2652 13.1145 16.5196 13.2199 16.7071 13.4074C16.8946 13.595 17 13.8493 17 14.1145ZM13 17.1145H8C7.73478 17.1145 7.48043 17.2199 7.29289 17.4074C7.10536 17.595 7 17.8493 7 18.1145C7 18.3797 7.10536 18.6341 7.29289 18.8216C7.48043 19.0092 7.73478 19.1145 8 19.1145H13C13.2652 19.1145 13.5196 19.0092 13.7071 18.8216C13.8946 18.6341 14 18.3797 14 18.1145C14 17.8493 13.8946 17.595 13.7071 17.4074C13.5196 17.2199 13.2652 17.1145 13 17.1145ZM22 10.5995V19.1145C21.9984 20.4401 21.4711 21.711 20.5338 22.6483C19.5964 23.5856 18.3256 24.1129 17 24.1145H7C5.67441 24.1129 4.40356 23.5856 3.46622 22.6483C2.52888 21.711 2.00159 20.4401 2 19.1145V5.11452C2.00159 3.78893 2.52888 2.51808 3.46622 1.58074C4.40356 0.643407 5.67441 0.116113 7 0.114525H11.515C12.4346 0.112158 13.3456 0.292113 14.1952 0.643984C15.0449 0.995856 15.8163 1.51266 16.465 2.16453L19.949 5.65052C20.6012 6.29877 21.1184 7.06998 21.4704 7.9195C21.8225 8.76902 22.0025 9.67995 22 10.5995ZM15.051 3.57853C14.7363 3.27369 14.3829 3.01145 14 2.79853V7.11452C14 7.37974 14.1054 7.6341 14.2929 7.82163C14.4804 8.00917 14.7348 8.11452 15 8.11452H19.316C19.103 7.73171 18.8404 7.37867 18.535 7.06452L15.051 3.57853ZM20 10.5995C20 10.4345 19.968 10.2765 19.953 10.1145H15C14.2044 10.1145 13.4413 9.79845 12.8787 9.23585C12.3161 8.67324 12 7.91017 12 7.11452V2.16153C11.838 2.14652 11.679 2.11453 11.515 2.11453H7C6.20435 2.11453 5.44129 2.4306 4.87868 2.9932C4.31607 3.55581 4 4.31888 4 5.11452V19.1145C4 19.9102 4.31607 20.6732 4.87868 21.2358C5.44129 21.7985 6.20435 22.1145 7 22.1145H17C17.7956 22.1145 18.5587 21.7985 19.1213 21.2358C19.6839 20.6732 20 19.9102 20 19.1145V10.5995Z" fill="url(#paint0_linear_1_2533)"/>
</g>
<defs>
<linearGradient id="paint0_linear_1_2533" x1="12" y1="0.114502" x2="12" y2="24.1145" gradientUnits="userSpaceOnUse">
<stop stop-color="#8266D4"/>
<stop offset="1" stop-color="#41288A"/>
</linearGradient>
<clipPath id="clip0_1_2533">
<rect width="24" height="24" fill="white" transform="translate(0 0.114502)"/>
</clipPath>
</defs>
</svg>
