<svg width="42" height="43" viewBox="0 0 42 43" fill="none" xmlns="http://www.w3.org/2000/svg">
<g clip-path="url(#clip0_550_1019)">
<path d="M29.75 25C29.75 25.4642 29.5656 25.9093 29.2374 26.2375C28.9093 26.5657 28.4641 26.75 28 26.75H14C13.5359 26.75 13.0908 26.5657 12.7626 26.2375C12.4344 25.9093 12.25 25.4642 12.25 25C12.25 24.5359 12.4344 24.0908 12.7626 23.7626C13.0908 23.4344 13.5359 23.25 14 23.25H28C28.4641 23.25 28.9093 23.4344 29.2374 23.7626C29.5656 24.0908 29.75 24.5359 29.75 25ZM22.75 30.25H14C13.5359 30.25 13.0908 30.4344 12.7626 30.7626C12.4344 31.0908 12.25 31.5359 12.25 32C12.25 32.4642 12.4344 32.9093 12.7626 33.2375C13.0908 33.5657 13.5359 33.75 14 33.75H22.75C23.2141 33.75 23.6592 33.5657 23.9874 33.2375C24.3156 32.9093 24.5 32.4642 24.5 32C24.5 31.5359 24.3156 31.0908 23.9874 30.7626C23.6592 30.4344 23.2141 30.25 22.75 30.25ZM38.5 18.8488V33.75C38.4972 36.0698 37.5745 38.2938 35.9341 39.9342C34.2938 41.5745 32.0698 42.4973 29.75 42.5H12.25C9.93021 42.4973 7.70623 41.5745 6.06589 39.9342C4.42554 38.2938 3.50278 36.0698 3.5 33.75V9.25004C3.50278 6.93025 4.42554 4.70627 6.06589 3.06592C7.70623 1.42558 9.93021 0.502819 12.25 0.50004H20.1513C21.7606 0.495898 23.3548 0.810819 24.8416 1.42659C26.3285 2.04237 27.6786 2.94678 28.8138 4.08754L34.9108 10.188C36.0522 11.3225 36.9571 12.6721 37.5732 14.1587C38.1894 15.6454 38.5044 17.2395 38.5 18.8488ZM26.3393 6.56204C25.7885 6.02857 25.1701 5.56966 24.5 5.19704V12.75C24.5 13.2142 24.6844 13.6593 25.0126 13.9875C25.3408 14.3157 25.7859 14.5 26.25 14.5H33.803C33.4302 13.8301 32.9706 13.2123 32.4363 12.6625L26.3393 6.56204ZM35 18.8488C35 18.56 34.944 18.2835 34.9178 18H26.25C24.8576 18 23.5223 17.4469 22.5377 16.4623C21.5531 15.4778 21 14.1424 21 12.75V4.08229C20.7165 4.05604 20.4383 4.00004 20.1513 4.00004H12.25C10.8576 4.00004 9.52226 4.55316 8.53769 5.53773C7.55312 6.5223 7 7.85765 7 9.25004V33.75C7 35.1424 7.55312 36.4778 8.53769 37.4623C9.52226 38.4469 10.8576 39 12.25 39H29.75C31.1424 39 32.4777 38.4469 33.4623 37.4623C34.4469 36.4778 35 35.1424 35 33.75V18.8488Z" fill="white"/>
</g>
<defs>
<clipPath id="clip0_550_1019">
<rect width="41" height="42" fill="white" transform="translate(0.5 0.5)"/>
</clipPath>
</defs>
</svg>
