<svg width="20" height="21" viewBox="0 0 20 21" fill="none" xmlns="http://www.w3.org/2000/svg">
<path d="M6 1.97559C6.5 1.97559 8.5 6.47559 8.5 6.97559C8.5 7.97559 7 8.97559 6.5 9.97559C6 10.9756 7 11.9756 8 12.9756C8.39 13.3656 10 14.9756 11 14.4756C12 13.9756 13 12.4756 14 12.4756C14.5 12.4756 19 14.4756 19 14.9756C19 16.9756 17.5 18.4756 16 18.9756C14.5 19.4756 13.5 19.4756 11.5 18.9756C9.5 18.4756 8 17.9756 5.5 15.4756C3 12.9756 2.5 11.4756 2 9.47559C1.5 7.47559 1.5 6.47559 2 4.97559C2.5 3.47559 4 1.97559 6 1.97559Z" stroke="white" stroke-width="2" stroke-linecap="round" stroke-linejoin="round"/>
</svg>
