<svg width="42" height="43" viewBox="0 0 42 43" fill="none" xmlns="http://www.w3.org/2000/svg">
<g clip-path="url(#clip0_550_958)">
<path d="M21.0037 35.4988C20.0377 35.4988 19.2537 34.7165 19.2537 33.7488C19.2537 29.6923 21.6722 26.124 26.063 23.702C30.0652 21.497 32.1337 17.1308 31.334 12.5808C30.5937 8.36678 27.1357 4.90703 22.92 4.16678C19.749 3.61028 16.6725 4.42403 14.254 6.45403C11.8687 8.45603 10.502 11.389 10.502 14.4988C10.502 15.4648 9.71795 16.2488 8.75195 16.2488C7.78595 16.2488 7.00195 15.4648 7.00195 14.4988C7.00195 10.3513 8.82545 6.44178 12.0035 3.77303C15.1815 1.10603 19.3832 -0.00697327 23.5255 0.719277C29.164 1.70803 33.791 6.33678 34.7815 11.9753C35.828 17.9288 33.0017 23.8718 27.7535 26.768C25.4732 28.0245 22.7537 30.2558 22.7537 33.7488C22.7537 34.7165 21.9697 35.4988 21.0037 35.4988ZM18.3787 39.8738C18.3787 41.3228 19.5547 42.4988 21.0037 42.4988C22.4527 42.4988 23.6287 41.3228 23.6287 39.8738C23.6287 38.4248 22.4527 37.2488 21.0037 37.2488C19.5547 37.2488 18.3787 38.4248 18.3787 39.8738Z" fill="white"/>
</g>
<defs>
<clipPath id="clip0_550_958">
<rect width="41.9953" height="41.9968" fill="white" transform="translate(0.00195312 0.501953)"/>
</clipPath>
</defs>
</svg>
