<svg width="527" height="524" viewBox="0 0 527 524" fill="none" xmlns="http://www.w3.org/2000/svg">
<g opacity="0.44">
<mask id="path-1-inside-1_138_2486" fill="white">
<path d="M-331 95C-331 -141.93 -138.93 -334 97.9998 -334C334.93 -334 527 -141.93 527 95C527 331.93 334.93 524 97.9998 524C-138.93 524 -331 331.93 -331 95Z"/>
</mask>
<path d="M97.9998 524V522C-137.826 522 -329 330.826 -329 95H-331H-333C-333 333.035 -140.035 526 97.9998 526V524ZM527 95H525C525 330.826 333.825 522 97.9998 522V524V526C336.035 526 529 333.035 529 95H527ZM97.9998 -334V-332C333.825 -332 525 -140.826 525 95H527H529C529 -143.035 336.035 -336 97.9998 -336V-334ZM97.9998 -334V-336C-140.035 -336 -333 -143.035 -333 95H-331H-329C-329 -140.826 -137.826 -332 97.9998 -332V-334Z" fill="#A167EC" fill-opacity="0.25" mask="url(#path-1-inside-1_138_2486)"/>
<mask id="path-3-inside-2_138_2486" fill="white">
<path d="M-245.084 95C-245.084 -94.48 -91.4799 -248.647 98.0001 -248.647C287.48 -248.647 441.084 -94.48 441.084 95C441.084 284.48 287.48 438.647 98.0001 438.647C-91.4799 438.647 -245.084 284.48 -245.084 95Z"/>
</mask>
<path d="M98.0001 438.647V436.647C-90.3711 436.647 -243.084 283.38 -243.084 95H-245.084H-247.084C-247.084 285.58 -92.5888 440.647 98.0001 440.647V438.647ZM441.084 95H439.084C439.084 283.38 286.371 436.647 98.0001 436.647V438.647V440.647C288.589 440.647 443.084 285.58 443.084 95H441.084ZM98.0001 -248.647V-246.647C286.371 -246.647 439.084 -93.3797 439.084 95H441.084H443.084C443.084 -95.5803 288.589 -250.647 98.0001 -250.647V-248.647ZM98.0001 -248.647V-250.647C-92.5888 -250.647 -247.084 -95.5803 -247.084 95H-245.084H-243.084C-243.084 -93.3797 -90.3711 -246.647 98.0001 -246.647V-248.647Z" fill="#A167EC" fill-opacity="0.25" mask="url(#path-3-inside-2_138_2486)"/>
<mask id="path-5-inside-3_138_2486" fill="white">
<path d="M-131.286 95C-131.286 -31.6311 -28.6311 -134.849 98 -134.849C224.631 -134.849 327.286 -31.6311 327.286 95C327.286 221.631 224.631 324.849 98 324.849C-28.6311 324.849 -131.286 221.631 -131.286 95Z"/>
</mask>
<path d="M98 324.849V322.849C-27.5202 322.849 -129.286 220.533 -129.286 95H-131.286H-133.286C-133.286 222.729 -29.7421 326.849 98 326.849V324.849ZM327.286 95H325.286C325.286 220.533 223.52 322.849 98 322.849V324.849V326.849C225.742 326.849 329.286 222.729 329.286 95H327.286ZM98 -134.849V-132.849C223.52 -132.849 325.286 -30.533 325.286 95H327.286H329.286C329.286 -32.7293 225.742 -136.849 98 -136.849V-134.849ZM98 -134.849V-136.849C-29.7421 -136.849 -133.286 -32.7293 -133.286 95H-131.286H-129.286C-129.286 -30.533 -27.5202 -132.849 98 -132.849V-134.849Z" fill="#A167EC" fill-opacity="0.25" mask="url(#path-5-inside-3_138_2486)"/>
</g>
</svg>
