<svg width="721" height="414" viewBox="0 0 721 414" fill="none" xmlns="http://www.w3.org/2000/svg">
<g opacity="0.44">
<mask id="path-1-inside-1_138_2491" fill="white">
<path d="M0 429C0 192.07 192.07 0 429 0C665.93 0 858 192.07 858 429C858 665.93 665.93 858 429 858C192.07 858 0 665.93 0 429Z"/>
</mask>
<path d="M429 858V856C193.174 856 2 664.826 2 429H0H-2C-2 667.035 190.965 860 429 860V858ZM858 429H856C856 664.826 664.825 856 429 856V858V860C667.035 860 860 667.035 860 429H858ZM429 0V2C664.825 2 856 193.174 856 429H858H860C860 190.965 667.035 -2 429 -2V0ZM429 0V-2C190.965 -2 -2 190.965 -2 429H0H2C2 193.174 193.174 2 429 2V0Z" fill="#A167EC" fill-opacity="0.25" mask="url(#path-1-inside-1_138_2491)"/>
<mask id="path-3-inside-2_138_2491" fill="white">
<path d="M85.9163 429C85.9163 239.52 239.52 85.3528 429 85.3528C618.48 85.3528 772.084 239.52 772.084 429C772.084 618.48 618.48 772.647 429 772.647C239.52 772.647 85.9163 618.48 85.9163 429Z"/>
</mask>
<path d="M429 772.647V770.647C240.629 770.647 87.9163 617.38 87.9163 429H85.9163H83.9163C83.9163 619.58 238.411 774.647 429 774.647V772.647ZM772.084 429H770.084C770.084 617.38 617.371 770.647 429 770.647V772.647V774.647C619.589 774.647 774.084 619.58 774.084 429H772.084ZM429 85.3528V87.3528C617.371 87.3528 770.084 240.62 770.084 429H772.084H774.084C774.084 238.42 619.589 83.3528 429 83.3528V85.3528ZM429 85.3528V83.3528C238.411 83.3528 83.9163 238.42 83.9163 429H85.9163H87.9163C87.9163 240.62 240.629 87.3528 429 87.3528V85.3528Z" fill="#A167EC" fill-opacity="0.25" mask="url(#path-3-inside-2_138_2491)"/>
<mask id="path-5-inside-3_138_2491" fill="white">
<path d="M199.714 429C199.714 302.369 302.369 199.151 429 199.151C555.631 199.151 658.286 302.369 658.286 429C658.286 555.631 555.631 658.849 429 658.849C302.369 658.849 199.714 555.631 199.714 429Z"/>
</mask>
<path d="M429 658.849V656.849C303.48 656.849 201.714 554.533 201.714 429H199.714H197.714C197.714 556.729 301.258 660.849 429 660.849V658.849ZM658.286 429H656.286C656.286 554.533 554.52 656.849 429 656.849V658.849V660.849C556.742 660.849 660.286 556.729 660.286 429H658.286ZM429 199.151V201.151C554.52 201.151 656.286 303.467 656.286 429H658.286H660.286C660.286 301.271 556.742 197.151 429 197.151V199.151ZM429 199.151V197.151C301.258 197.151 197.714 301.271 197.714 429H199.714H201.714C201.714 303.467 303.48 201.151 429 201.151V199.151Z" fill="#A167EC" fill-opacity="0.25" mask="url(#path-5-inside-3_138_2491)"/>
</g>
</svg>
