<svg width="17" height="17" viewBox="0 0 17 17" fill="none" xmlns="http://www.w3.org/2000/svg">
<path d="M10.5685 2.11426C10.9199 2.11926 11.2552 2.26294 11.5012 2.514L14.0329 5.04568C14.2839 5.2917 14.4276 5.62694 14.4326 5.97841V12.774C14.4326 13.1274 14.2922 13.4663 14.0423 13.7162C13.7925 13.9661 13.4535 14.1064 13.1002 14.1064H3.77289C3.4195 14.1064 3.08059 13.9661 2.8307 13.7162C2.58081 13.4663 2.44043 13.1274 2.44043 12.774V3.44672C2.44043 3.09333 2.58081 2.75441 2.8307 2.50453C3.08059 2.25464 3.4195 2.11426 3.77289 2.11426H10.5685Z" stroke="black" stroke-width="1.33247" stroke-linecap="round" stroke-linejoin="round"/>
<path d="M11.7678 14.1062V9.4426C11.7678 9.2659 11.6976 9.09645 11.5727 8.9715C11.4477 8.84656 11.2783 8.77637 11.1016 8.77637H5.7717C5.59501 8.77637 5.42555 8.84656 5.3006 8.9715C5.17566 9.09645 5.10547 9.2659 5.10547 9.4426V14.1062" stroke="black" stroke-width="1.33247" stroke-linecap="round" stroke-linejoin="round"/>
<path d="M5.10547 2.11426V4.77919C5.10547 4.95588 5.17566 5.12534 5.3006 5.25029C5.42555 5.37523 5.59501 5.44542 5.7717 5.44542H10.4353" stroke="black" stroke-width="1.33247" stroke-linecap="round" stroke-linejoin="round"/>
</svg>
