<svg width="25" height="25" viewBox="0 0 25 25" fill="none" xmlns="http://www.w3.org/2000/svg">
<g clip-path="url(#clip0_1_5215)">
<path d="M22.4161 9.22707L4.46515 0.782073C3.45115 0.289073 2.25615 0.459073 1.41715 1.21307C0.576146 1.97007 0.284146 3.14607 0.672146 4.20807C0.689146 4.25107 5.08315 12.5041 5.08315 12.5041C5.08315 12.5041 0.770146 20.7551 0.755146 20.7971C0.368146 21.8601 0.663145 23.0341 1.50415 23.7901C2.02515 24.2571 2.68315 24.4981 3.34515 24.4981C3.75415 24.4981 4.16415 24.4061 4.54615 24.2191L22.4181 15.7811C23.7031 15.1781 24.5011 13.9221 24.5001 12.5031C24.5001 11.0831 23.6991 9.82707 22.4161 9.22707ZM2.53215 3.46707C2.41015 3.05207 2.67015 2.77707 2.75515 2.69907C2.84415 2.62007 3.16915 2.37507 3.59315 2.58307C3.59815 2.58507 21.5671 11.0381 21.5671 11.0381C21.8061 11.1501 22.0051 11.3081 22.1581 11.5001H6.81515L2.53215 3.46707ZM21.5661 13.9711L3.67815 22.4171C3.25315 22.6261 2.92915 22.3821 2.84015 22.3011C2.75415 22.2251 2.49415 21.9481 2.61715 21.5321L6.81915 13.5001H22.1641C22.0111 13.6951 21.8081 13.8571 21.5661 13.9711Z" fill="white"/>
</g>
<defs>
<clipPath id="clip0_1_5215">
<rect width="24" height="24" fill="white" transform="translate(0.5 0.5)"/>
</clipPath>
</defs>
</svg>
