<svg width="25" height="25" viewBox="0 0 25 25" fill="none" xmlns="http://www.w3.org/2000/svg">
<g clip-path="url(#clip0_1_3172)">
<path d="M12.5 8.5C11.7089 8.5 10.9355 8.7346 10.2777 9.17412C9.61993 9.61365 9.10723 10.2384 8.80448 10.9693C8.50173 11.7002 8.42252 12.5044 8.57686 13.2804C8.7312 14.0563 9.11216 14.769 9.67157 15.3284C10.231 15.8878 10.9437 16.2688 11.7196 16.4231C12.4956 16.5775 13.2998 16.4983 14.0307 16.1955C14.7616 15.8928 15.3864 15.3801 15.8259 14.7223C16.2654 14.0645 16.5 13.2911 16.5 12.5C16.5 11.4391 16.0786 10.4217 15.3284 9.67157C14.5783 8.92143 13.5609 8.5 12.5 8.5ZM12.5 14.5C12.1044 14.5 11.7178 14.3827 11.3889 14.1629C11.06 13.9432 10.8036 13.6308 10.6522 13.2654C10.5009 12.8999 10.4613 12.4978 10.5384 12.1098C10.6156 11.7219 10.8061 11.3655 11.0858 11.0858C11.3655 10.8061 11.7219 10.6156 12.1098 10.5384C12.4978 10.4613 12.8999 10.5009 13.2654 10.6522C13.6308 10.8036 13.9432 11.06 14.1629 11.3889C14.3827 11.7178 14.5 12.1044 14.5 12.5C14.5 13.0304 14.2893 13.5391 13.9142 13.9142C13.5391 14.2893 13.0304 14.5 12.5 14.5Z" fill="black"/>
<path d="M21.7938 14.4L21.3498 14.144C21.5497 13.0564 21.5497 11.9416 21.3498 10.854L21.7938 10.598C22.1352 10.401 22.4345 10.1387 22.6746 9.82606C22.9147 9.51341 23.0908 9.15654 23.1929 8.77582C23.2951 8.3951 23.3212 7.99799 23.2699 7.60716C23.2186 7.21633 23.0908 6.83944 22.8938 6.498C22.6968 6.15656 22.4345 5.85727 22.1219 5.6172C21.8092 5.37714 21.4523 5.20101 21.0716 5.09886C20.6909 4.99672 20.2938 4.97056 19.903 5.02189C19.5121 5.07321 19.1352 5.20102 18.7938 5.398L18.3488 5.655C17.5083 4.93692 16.5425 4.38025 15.4998 4.013V3.5C15.4998 2.70435 15.1837 1.94129 14.6211 1.37868C14.0585 0.81607 13.2954 0.5 12.4998 0.5C11.7041 0.5 10.9411 0.81607 10.3785 1.37868C9.81587 1.94129 9.4998 2.70435 9.4998 3.5V4.013C8.45719 4.38157 7.49165 4.9396 6.6518 5.659L6.2048 5.4C5.51524 5.00218 4.69588 4.89457 3.92698 5.10086C3.15808 5.30715 2.50262 5.81044 2.1048 6.5C1.70697 7.18956 1.59937 8.00892 1.80566 8.77782C2.01195 9.54672 2.51524 10.2022 3.2048 10.6L3.6488 10.856C3.44891 11.9436 3.44891 13.0584 3.6488 14.146L3.2048 14.402C2.51524 14.7998 2.01195 15.4553 1.80566 16.2242C1.59937 16.9931 1.70697 17.8124 2.1048 18.502C2.50262 19.1916 3.15808 19.6948 3.92698 19.9011C4.69588 20.1074 5.51524 19.9998 6.2048 19.602L6.6498 19.345C7.49056 20.0632 8.45678 20.6199 9.4998 20.987V21.5C9.4998 22.2956 9.81587 23.0587 10.3785 23.6213C10.9411 24.1839 11.7041 24.5 12.4998 24.5C13.2954 24.5 14.0585 24.1839 14.6211 23.6213C15.1837 23.0587 15.4998 22.2956 15.4998 21.5V20.987C16.5424 20.6184 17.508 20.0604 18.3478 19.341L18.7948 19.599C19.4844 19.9968 20.3037 20.1044 21.0726 19.8981C21.8415 19.6918 22.497 19.1886 22.8948 18.499C23.2926 17.8094 23.4002 16.9901 23.1939 16.2212C22.9876 15.4523 22.4844 14.7968 21.7948 14.399L21.7938 14.4ZM19.2458 10.624C19.5844 11.8511 19.5844 13.1469 19.2458 14.374C19.1867 14.5876 19.2002 14.8147 19.2841 15.0198C19.3681 15.2249 19.5178 15.3963 19.7098 15.507L20.7938 16.133C21.0236 16.2656 21.1913 16.4841 21.2601 16.7403C21.3288 16.9966 21.2929 17.2697 21.1603 17.4995C21.0277 17.7293 20.8092 17.897 20.553 17.9658C20.2967 18.0345 20.0236 17.9986 19.7938 17.866L18.7078 17.238C18.5157 17.1267 18.292 17.0826 18.072 17.1124C17.8521 17.1423 17.6483 17.2445 17.4928 17.403C16.6027 18.3117 15.4814 18.96 14.2498 19.278C14.0348 19.3333 13.8444 19.4585 13.7084 19.6339C13.5724 19.8094 13.4987 20.025 13.4988 20.247V21.5C13.4988 21.7652 13.3934 22.0196 13.2059 22.2071C13.0184 22.3946 12.764 22.5 12.4988 22.5C12.2336 22.5 11.9792 22.3946 11.7917 22.2071C11.6042 22.0196 11.4988 21.7652 11.4988 21.5V20.248C11.4989 20.026 11.4252 19.8104 11.2892 19.6349C11.1532 19.4595 10.9628 19.3343 10.7478 19.279C9.51615 18.9597 8.39513 18.31 7.5058 17.4C7.35032 17.2415 7.14654 17.1393 6.92655 17.1094C6.70657 17.0796 6.4829 17.1237 6.2908 17.235L5.2068 17.862C5.09303 17.9287 4.96719 17.9722 4.83652 17.9901C4.70586 18.008 4.57295 17.9998 4.44545 17.9661C4.31795 17.9324 4.19838 17.8738 4.09362 17.7937C3.98886 17.7136 3.90098 17.6135 3.83504 17.4993C3.76909 17.3851 3.72639 17.259 3.7094 17.1282C3.6924 16.9974 3.70144 16.8646 3.73599 16.7373C3.77054 16.61 3.82993 16.4909 3.91073 16.3866C3.99153 16.2824 4.09215 16.1952 4.2068 16.13L5.2908 15.504C5.48275 15.3933 5.63247 15.2219 5.71646 15.0168C5.80044 14.8117 5.81393 14.5846 5.7548 14.371C5.41616 13.1439 5.41616 11.8481 5.7548 10.621C5.81286 10.4079 5.79873 10.1815 5.71461 9.97729C5.63049 9.77305 5.48111 9.60241 5.2898 9.492L4.2058 8.866C3.97599 8.73339 3.80827 8.51492 3.73954 8.25865C3.67081 8.00239 3.70669 7.72931 3.8393 7.4995C3.97191 7.26969 4.19038 7.10197 4.44664 7.03324C4.70291 6.96451 4.97599 7.00039 5.2058 7.133L6.2918 7.761C6.48338 7.87251 6.70658 7.91721 6.92633 7.88807C7.14607 7.85893 7.34991 7.75759 7.5058 7.6C8.39589 6.69134 9.51722 6.04302 10.7488 5.725C10.9644 5.66956 11.1554 5.54375 11.2914 5.3675C11.4275 5.19125 11.5008 4.97464 11.4998 4.752V3.5C11.4998 3.23478 11.6052 2.98043 11.7927 2.79289C11.9802 2.60536 12.2346 2.5 12.4998 2.5C12.765 2.5 13.0194 2.60536 13.2069 2.79289C13.3944 2.98043 13.4998 3.23478 13.4998 3.5V4.752C13.4997 4.97396 13.5734 5.18964 13.7094 5.36508C13.8454 5.54052 14.0358 5.66573 14.2508 5.721C15.4828 6.04015 16.6042 6.68988 17.4938 7.6C17.6493 7.75847 17.8531 7.86069 18.073 7.89057C18.293 7.92044 18.5167 7.87626 18.7088 7.765L19.7928 7.138C19.9066 7.0713 20.0324 7.02777 20.1631 7.0099C20.2937 6.99204 20.4266 7.00019 20.5541 7.0339C20.6816 7.06761 20.8012 7.1262 20.906 7.20631C21.0107 7.28642 21.0986 7.38646 21.1646 7.50067C21.2305 7.61488 21.2732 7.74101 21.2902 7.87179C21.3072 8.00257 21.2982 8.13542 21.2636 8.26269C21.2291 8.38997 21.1697 8.50915 21.0889 8.61337C21.0081 8.7176 20.9074 8.80482 20.7928 8.87L19.7088 9.496C19.5178 9.60671 19.3689 9.77748 19.2851 9.98169C19.2014 10.1859 19.1876 10.4121 19.2458 10.625V10.624Z" fill="black"/>
</g>
<defs>
<clipPath id="clip0_1_3172">
<rect width="24" height="24" fill="white" transform="translate(0.5 0.5)"/>
</clipPath>
</defs>
</svg>
