<svg width="33" height="33" viewBox="0 0 33 33" fill="none" xmlns="http://www.w3.org/2000/svg">
<g clip-path="url(#clip0_138_2436)">
<path d="M27.0987 4.0253L16.5001 0.511963L5.90141 4.0253C5.10611 4.28666 4.41359 4.79239 3.92255 5.47041C3.43151 6.14843 3.16701 6.96414 3.16675 7.8013V16.5C3.16675 26.532 15.4334 32.072 15.9587 32.3026L16.4307 32.512L16.9214 32.3493C17.4481 32.1733 29.8334 27.936 29.8334 16.5V7.8013C29.8329 6.96419 29.5684 6.14857 29.0774 5.47059C28.5864 4.79261 27.8939 4.28684 27.0987 4.0253ZM27.1667 16.5C27.1667 24.8506 18.7014 28.788 16.5627 29.648C14.4201 28.5773 5.83341 23.8253 5.83341 16.5V7.8013C5.83353 7.52219 5.92176 7.25025 6.08553 7.02423C6.24929 6.79822 6.48023 6.62968 6.74541 6.54263L16.5001 3.30796L26.2547 6.54263C26.5202 6.62932 26.7513 6.79777 26.9151 7.02386C27.079 7.24996 27.167 7.52209 27.1667 7.8013V16.5Z" fill="white"/>
</g>
<defs>
<clipPath id="clip0_138_2436">
<rect width="32" height="32" fill="white" transform="translate(0.5 0.5)"/>
</clipPath>
</defs>
</svg>
