<svg width="42" height="42" viewBox="0 0 42 42" fill="none" xmlns="http://www.w3.org/2000/svg">
<path d="M40.25 38.5H5.25C4.78587 38.5 4.34075 38.3156 4.01256 37.9874C3.68437 37.6592 3.5 37.2141 3.5 36.75V1.75C3.5 1.28587 3.31563 0.840752 2.98744 0.512563C2.65925 0.184374 2.21413 0 1.75 0C1.28587 0 0.840752 0.184374 0.512563 0.512563C0.184374 0.840752 0 1.28587 0 1.75L0 36.75C0 38.1424 0.553123 39.4777 1.53769 40.4623C2.52226 41.4469 3.85761 42 5.25 42H40.25C40.7141 42 41.1592 41.8156 41.4874 41.4874C41.8156 41.1592 42 40.7141 42 40.25C42 39.7859 41.8156 39.3408 41.4874 39.0126C41.1592 38.6844 40.7141 38.5 40.25 38.5Z" fill="white"/>
<path d="M8.75 35C9.21413 35 9.65925 34.8156 9.98744 34.4874C10.3156 34.1592 10.5 33.7141 10.5 33.25V21C10.5 20.5359 10.3156 20.0908 9.98744 19.7626C9.65925 19.4344 9.21413 19.25 8.75 19.25C8.28587 19.25 7.84075 19.4344 7.51256 19.7626C7.18437 20.0908 7 20.5359 7 21V33.25C7 33.7141 7.18437 34.1592 7.51256 34.4874C7.84075 34.8156 8.28587 35 8.75 35Z" fill="white"/>
<path d="M16.25 35C16.7141 35 17.1592 34.8156 17.4874 34.4874C17.8156 34.1593 18 33.7141 18 33.25V12.25C18 11.7859 17.8156 11.3408 17.4874 11.0126C17.1592 10.6844 16.7141 10.5 16.25 10.5C15.7859 10.5 15.3408 10.6844 15.0126 11.0126C14.6844 11.3408 14.5 11.7859 14.5 12.25V33.25C14.5 33.7141 14.6844 34.1593 15.0126 34.4874C15.3408 34.8156 15.7859 35 16.25 35Z" fill="white"/>
<path d="M23.75 35C24.2141 35 24.6592 34.8156 24.9874 34.4874C25.3156 34.1592 25.5 33.7141 25.5 33.25V21C25.5 20.5359 25.3156 20.0908 24.9874 19.7626C24.6592 19.4344 24.2141 19.25 23.75 19.25C23.2859 19.25 22.8408 19.4344 22.5126 19.7626C22.1844 20.0908 22 20.5359 22 21V33.25C22 33.7141 22.1844 34.1592 22.5126 34.4874C22.8408 34.8156 23.2859 35 23.75 35Z" fill="white"/>
<path d="M31.25 35C31.7141 35 32.1592 34.8156 32.4874 34.4874C32.8156 34.1593 33 33.7141 33 33.25V12.25C33 11.7859 32.8156 11.3408 32.4874 11.0126C32.1592 10.6844 31.7141 10.5 31.25 10.5C30.7859 10.5 30.3408 10.6844 30.0126 11.0126C29.6844 11.3408 29.5 11.7859 29.5 12.25V33.25C29.5 33.7141 29.6844 34.1593 30.0126 34.4874C30.3408 34.8156 30.7859 35 31.25 35Z" fill="white"/>
</svg>
