<svg width="33" height="33" viewBox="0 0 33 33" fill="none" xmlns="http://www.w3.org/2000/svg">
<g clip-path="url(#clip0_138_2465)">
<path d="M31.1667 29.8333H4.5C4.14638 29.8333 3.80724 29.6929 3.55719 29.4428C3.30714 29.1928 3.16667 28.8536 3.16667 28.5V1.83333C3.16667 1.47971 3.02619 1.14057 2.77614 0.890524C2.52609 0.640476 2.18696 0.5 1.83333 0.5C1.47971 0.5 1.14057 0.640476 0.890524 0.890524C0.640476 1.14057 0.5 1.47971 0.5 1.83333L0.5 28.5C0.5 29.5609 0.921427 30.5783 1.67157 31.3284C2.42172 32.0786 3.43913 32.5 4.5 32.5H31.1667C31.5203 32.5 31.8594 32.3595 32.1095 32.1095C32.3595 31.8594 32.5 31.5203 32.5 31.1667C32.5 30.813 32.3595 30.4739 32.1095 30.2239C31.8594 29.9738 31.5203 29.8333 31.1667 29.8333Z" fill="white"/>
<path d="M20.5001 27.1666C20.8537 27.1666 21.1928 27.0262 21.4429 26.7761C21.6929 26.5261 21.8334 26.1869 21.8334 25.8333V16.5C21.8334 16.1463 21.6929 15.8072 21.4429 15.5572C21.1928 15.3071 20.8537 15.1666 20.5001 15.1666C20.1465 15.1666 19.8073 15.3071 19.5573 15.5572C19.3072 15.8072 19.1667 16.1463 19.1667 16.5V25.8333C19.1667 26.1869 19.3072 26.5261 19.5573 26.7761C19.8073 27.0262 20.1465 27.1666 20.5001 27.1666Z" fill="white"/>
<path d="M9.83333 27.1666C10.187 27.1666 10.5261 27.0262 10.7761 26.7761C11.0262 26.5261 11.1667 26.1869 11.1667 25.8333V16.5C11.1667 16.1463 11.0262 15.8072 10.7761 15.5572C10.5261 15.3071 10.187 15.1666 9.83333 15.1666C9.47971 15.1666 9.14057 15.3071 8.89052 15.5572C8.64048 15.8072 8.5 16.1463 8.5 16.5V25.8333C8.5 26.1869 8.64048 26.5261 8.89052 26.7761C9.14057 27.0262 9.47971 27.1666 9.83333 27.1666Z" fill="white"/>
<path d="M25.8333 27.1667C26.187 27.1667 26.5261 27.0262 26.7761 26.7761C27.0262 26.5261 27.1667 26.187 27.1667 25.8333V9.83333C27.1667 9.47971 27.0262 9.14057 26.7761 8.89052C26.5261 8.64048 26.187 8.5 25.8333 8.5C25.4797 8.5 25.1406 8.64048 24.8905 8.89052C24.6405 9.14057 24.5 9.47971 24.5 9.83333V25.8333C24.5 26.187 24.6405 26.5261 24.8905 26.7761C25.1406 27.0262 25.4797 27.1667 25.8333 27.1667Z" fill="white"/>
<path d="M15.1666 27.1667C15.5202 27.1667 15.8593 27.0262 16.1094 26.7761C16.3594 26.5261 16.4999 26.187 16.4999 25.8333V9.83333C16.4999 9.47971 16.3594 9.14057 16.1094 8.89052C15.8593 8.64048 15.5202 8.5 15.1666 8.5C14.813 8.5 14.4738 8.64048 14.2238 8.89052C13.9737 9.14057 13.8333 9.47971 13.8333 9.83333V25.8333C13.8333 26.187 13.9737 26.5261 14.2238 26.7761C14.4738 27.0262 14.813 27.1667 15.1666 27.1667Z" fill="white"/>
</g>
<defs>
<clipPath id="clip0_138_2465">
<rect width="32" height="32" fill="white" transform="translate(0.5 0.5)"/>
</clipPath>
</defs>
</svg>
