<svg width="25" height="24" viewBox="0 0 25 24" fill="none" xmlns="http://www.w3.org/2000/svg">
<g clip-path="url(#clip0_1_6791)">
<path d="M22.8186 4.43101L8.99963 18.249C8.90672 18.3423 8.79631 18.4163 8.67473 18.4668C8.55315 18.5173 8.42279 18.5433 8.29113 18.5433C8.15948 18.5433 8.02912 18.5173 7.90754 18.4668C7.78596 18.4163 7.67554 18.3423 7.58263 18.249L2.23863 12.9C2.14572 12.8067 2.03531 12.7327 1.91373 12.6822C1.79214 12.6317 1.66179 12.6057 1.53013 12.6057C1.39848 12.6057 1.26812 12.6317 1.14654 12.6822C1.02496 12.7327 0.914542 12.8067 0.821633 12.9C0.728356 12.9929 0.654344 13.1033 0.603842 13.2249C0.55334 13.3465 0.527344 13.4769 0.527344 13.6085C0.527344 13.7402 0.55334 13.8705 0.603842 13.9921C0.654344 14.1137 0.728356 14.2241 0.821633 14.317L6.16763 19.662C6.73158 20.2249 7.49583 20.5411 8.29263 20.5411C9.08944 20.5411 9.85369 20.2249 10.4176 19.662L24.2356 5.84701C24.3288 5.75412 24.4026 5.64377 24.4531 5.52228C24.5035 5.40079 24.5294 5.27054 24.5294 5.13901C24.5294 5.00747 24.5035 4.87723 24.4531 4.75574C24.4026 4.63425 24.3288 4.5239 24.2356 4.43101C24.1427 4.33773 24.0323 4.26372 23.9107 4.21322C23.7891 4.16272 23.6588 4.13672 23.5271 4.13672C23.3955 4.13672 23.2651 4.16272 23.1435 4.21322C23.022 4.26372 22.9115 4.33773 22.8186 4.43101Z" fill="white"/>
</g>
<defs>
<clipPath id="clip0_1_6791">
<rect width="24" height="24" fill="white" transform="translate(0.5)"/>
</clipPath>
</defs>
</svg>
