<svg width="25" height="25" viewBox="0 0 25 25" fill="none" xmlns="http://www.w3.org/2000/svg">
<g opacity="0.7" clip-path="url(#clip0_1_7983)">
<path d="M21.5 4.5H18.4C18.1679 3.37141 17.5538 2.35735 16.6613 1.62872C15.7687 0.90009 14.6522 0.501455 13.5 0.5L11.5 0.5C10.3478 0.501455 9.23132 0.90009 8.33875 1.62872C7.44618 2.35735 6.8321 3.37141 6.6 4.5H3.5C3.23478 4.5 2.98043 4.60536 2.79289 4.79289C2.60536 4.98043 2.5 5.23478 2.5 5.5C2.5 5.76522 2.60536 6.01957 2.79289 6.20711C2.98043 6.39464 3.23478 6.5 3.5 6.5H4.5V19.5C4.50159 20.8256 5.02888 22.0964 5.96622 23.0338C6.90356 23.9711 8.17441 24.4984 9.5 24.5H15.5C16.8256 24.4984 18.0964 23.9711 19.0338 23.0338C19.9711 22.0964 20.4984 20.8256 20.5 19.5V6.5H21.5C21.7652 6.5 22.0196 6.39464 22.2071 6.20711C22.3946 6.01957 22.5 5.76522 22.5 5.5C22.5 5.23478 22.3946 4.98043 22.2071 4.79289C22.0196 4.60536 21.7652 4.5 21.5 4.5ZM11.5 2.5H13.5C14.1203 2.50076 14.7251 2.69338 15.2316 3.05144C15.7381 3.40951 16.1214 3.91549 16.329 4.5H8.671C8.87858 3.91549 9.2619 3.40951 9.76839 3.05144C10.2749 2.69338 10.8797 2.50076 11.5 2.5ZM18.5 19.5C18.5 20.2956 18.1839 21.0587 17.6213 21.6213C17.0587 22.1839 16.2956 22.5 15.5 22.5H9.5C8.70435 22.5 7.94129 22.1839 7.37868 21.6213C6.81607 21.0587 6.5 20.2956 6.5 19.5V6.5H18.5V19.5Z" fill="#CF1742"/>
<path d="M10.5 18.5C10.7652 18.5 11.0196 18.3946 11.2071 18.2071C11.3946 18.0196 11.5 17.7652 11.5 17.5V11.5C11.5 11.2348 11.3946 10.9804 11.2071 10.7929C11.0196 10.6054 10.7652 10.5 10.5 10.5C10.2348 10.5 9.98043 10.6054 9.79289 10.7929C9.60536 10.9804 9.5 11.2348 9.5 11.5V17.5C9.5 17.7652 9.60536 18.0196 9.79289 18.2071C9.98043 18.3946 10.2348 18.5 10.5 18.5Z" fill="#CF1742"/>
<path d="M14.5 18.5C14.7652 18.5 15.0196 18.3946 15.2071 18.2071C15.3946 18.0196 15.5 17.7652 15.5 17.5V11.5C15.5 11.2348 15.3946 10.9804 15.2071 10.7929C15.0196 10.6054 14.7652 10.5 14.5 10.5C14.2348 10.5 13.9804 10.6054 13.7929 10.7929C13.6054 10.9804 13.5 11.2348 13.5 11.5V17.5C13.5 17.7652 13.6054 18.0196 13.7929 18.2071C13.9804 18.3946 14.2348 18.5 14.5 18.5Z" fill="#CF1742"/>
</g>
<defs>
<clipPath id="clip0_1_7983">
<rect width="24" height="24" fill="white" transform="translate(0.5 0.5)"/>
</clipPath>
</defs>
</svg>
