<svg width="25" height="25" viewBox="0 0 25 25" fill="none" xmlns="http://www.w3.org/2000/svg">
<g clip-path="url(#clip0_1_5311)">
<path d="M11.5068 3.07836L11.4998 18.5164C11.4998 18.7816 11.6052 19.0359 11.7927 19.2235C11.9802 19.411 12.2346 19.5164 12.4998 19.5164C12.765 19.5164 13.0194 19.411 13.2069 19.2235C13.3945 19.0359 13.4998 18.7816 13.4998 18.5164L13.5068 3.09536L16.4188 6.00836C16.6063 6.19583 16.8606 6.30115 17.1258 6.30115C17.391 6.30115 17.6453 6.19583 17.8328 6.00836C18.0203 5.82083 18.1256 5.56652 18.1256 5.30136C18.1256 5.0362 18.0203 4.78189 17.8328 4.59436L14.6218 1.37936C14.3432 1.10058 14.0124 0.87943 13.6483 0.728545C13.2842 0.577661 12.8939 0.5 12.4998 0.5C12.1057 0.5 11.7154 0.577661 11.3513 0.728545C10.9872 0.87943 10.6564 1.10058 10.3778 1.37936L7.16681 4.59136C6.97934 4.77889 6.87402 5.0332 6.87402 5.29836C6.87402 5.56352 6.97934 5.81783 7.16681 6.00536C7.35434 6.19283 7.60865 6.29815 7.87381 6.29815C8.13897 6.29815 8.39328 6.19283 8.58081 6.00536L11.5068 3.07836Z" fill="white"/>
<path d="M22.5 17.5V21.5C22.5 21.7652 22.3946 22.0196 22.2071 22.2071C22.0196 22.3946 21.7652 22.5 21.5 22.5H3.5C3.23478 22.5 2.98043 22.3946 2.79289 22.2071C2.60536 22.0196 2.5 21.7652 2.5 21.5V17.5C2.5 17.2348 2.39464 16.9804 2.20711 16.7929C2.01957 16.6054 1.76522 16.5 1.5 16.5C1.23478 16.5 0.98043 16.6054 0.792893 16.7929C0.605357 16.9804 0.5 17.2348 0.5 17.5L0.5 21.5C0.5 22.2956 0.81607 23.0587 1.37868 23.6213C1.94129 24.1839 2.70435 24.5 3.5 24.5H21.5C22.2956 24.5 23.0587 24.1839 23.6213 23.6213C24.1839 23.0587 24.5 22.2956 24.5 21.5V17.5C24.5 17.2348 24.3946 16.9804 24.2071 16.7929C24.0196 16.6054 23.7652 16.5 23.5 16.5C23.2348 16.5 22.9804 16.6054 22.7929 16.7929C22.6054 16.9804 22.5 17.2348 22.5 17.5Z" fill="white"/>
</g>
<defs>
<clipPath id="clip0_1_5311">
<rect width="24" height="24" fill="white" transform="translate(0.5 0.5)"/>
</clipPath>
</defs>
</svg>
