<svg width="25" height="25" viewBox="0 0 25 25" fill="none" xmlns="http://www.w3.org/2000/svg">
<g clip-path="url(#clip0_1_7137)">
<path d="M11.5068 3.3977L11.4998 18.8357C11.4998 19.1009 11.6052 19.3553 11.7927 19.5428C11.9802 19.7303 12.2346 19.8357 12.4998 19.8357C12.765 19.8357 13.0194 19.7303 13.2069 19.5428C13.3945 19.3553 13.4998 19.1009 13.4998 18.8357L13.5068 3.4147L16.4188 6.3277C16.6063 6.51517 16.8606 6.62048 17.1258 6.62048C17.391 6.62048 17.6453 6.51517 17.8328 6.3277C18.0203 6.14017 18.1256 5.88586 18.1256 5.6207C18.1256 5.35553 18.0203 5.10122 17.8328 4.9137L14.6218 1.6987C14.3432 1.41992 14.0124 1.19877 13.6483 1.04788C13.2842 0.896997 12.8939 0.819336 12.4998 0.819336C12.1057 0.819336 11.7154 0.896997 11.3513 1.04788C10.9872 1.19877 10.6564 1.41992 10.3778 1.6987L7.16681 4.9107C6.97934 5.09822 6.87402 5.35253 6.87402 5.6177C6.87402 5.88286 6.97934 6.13717 7.16681 6.3247C7.35434 6.51217 7.60865 6.61748 7.87381 6.61748C8.13897 6.61748 8.39328 6.51217 8.58081 6.3247L11.5068 3.3977Z" fill="url(#paint0_linear_1_7137)"/>
<path d="M22.5 17.8193V21.8193C22.5 22.0846 22.3946 22.3389 22.2071 22.5264C22.0196 22.714 21.7652 22.8193 21.5 22.8193H3.5C3.23478 22.8193 2.98043 22.714 2.79289 22.5264C2.60536 22.3389 2.5 22.0846 2.5 21.8193V17.8193C2.5 17.5541 2.39464 17.2998 2.20711 17.1122C2.01957 16.9247 1.76522 16.8193 1.5 16.8193C1.23478 16.8193 0.98043 16.9247 0.792893 17.1122C0.605357 17.2998 0.5 17.5541 0.5 17.8193L0.5 21.8193C0.5 22.615 0.81607 23.378 1.37868 23.9407C1.94129 24.5033 2.70435 24.8193 3.5 24.8193H21.5C22.2956 24.8193 23.0587 24.5033 23.6213 23.9407C24.1839 23.378 24.5 22.615 24.5 21.8193V17.8193C24.5 17.5541 24.3946 17.2998 24.2071 17.1122C24.0196 16.9247 23.7652 16.8193 23.5 16.8193C23.2348 16.8193 22.9804 16.9247 22.7929 17.1122C22.6054 17.2998 22.5 17.5541 22.5 17.8193Z" fill="url(#paint1_linear_1_7137)"/>
</g>
<defs>
<linearGradient id="paint0_linear_1_7137" x1="12.4998" y1="0.819336" x2="12.4998" y2="19.8357" gradientUnits="userSpaceOnUse">
<stop stop-color="#8266D4"/>
<stop offset="1" stop-color="#41288A"/>
</linearGradient>
<linearGradient id="paint1_linear_1_7137" x1="12.5" y1="16.8193" x2="12.5" y2="24.8193" gradientUnits="userSpaceOnUse">
<stop stop-color="#8266D4"/>
<stop offset="1" stop-color="#41288A"/>
</linearGradient>
<clipPath id="clip0_1_7137">
<rect width="24" height="24" fill="white" transform="translate(0.5 0.819336)"/>
</clipPath>
</defs>
</svg>
