<svg width="25" height="24" viewBox="0 0 25 24" fill="none" xmlns="http://www.w3.org/2000/svg">
<path d="M16.3281 21V19C16.3281 17.9391 15.9067 16.9217 15.1566 16.1716C14.4064 15.4214 13.389 15 12.3281 15H6.32812C5.26726 15 4.24984 15.4214 3.4997 16.1716C2.74955 16.9217 2.32813 17.9391 2.32812 19V21" stroke="white" stroke-width="2" stroke-linecap="round" stroke-linejoin="round"/>
<path d="M16.3281 3.12793C17.1859 3.3503 17.9455 3.85119 18.4878 4.55199C19.0301 5.25279 19.3243 6.11382 19.3243 6.99993C19.3243 7.88604 19.0301 8.74707 18.4878 9.44787C17.9455 10.1487 17.1859 10.6496 16.3281 10.8719" stroke="white" stroke-width="2" stroke-linecap="round" stroke-linejoin="round"/>
<path d="M22.3281 20.9999V18.9999C22.3275 18.1136 22.0325 17.2527 21.4895 16.5522C20.9465 15.8517 20.1863 15.3515 19.3281 15.1299" stroke="white" stroke-width="2" stroke-linecap="round" stroke-linejoin="round"/>
<path d="M9.32812 11C11.5373 11 13.3281 9.20914 13.3281 7C13.3281 4.79086 11.5373 3 9.32812 3C7.11899 3 5.32812 4.79086 5.32812 7C5.32812 9.20914 7.11899 11 9.32812 11Z" stroke="white" stroke-width="2" stroke-linecap="round" stroke-linejoin="round"/>
</svg>
