<svg width="33" height="33" viewBox="0 0 33 33" fill="none" xmlns="http://www.w3.org/2000/svg">
<g clip-path="url(#clip0_138_2456)">
<path d="M29.8333 17.8333H32.5C32.5 25.8853 25.9493 32.5 17.8973 32.5H15.1027C7.05067 32.5 0.5 25.8853 0.5 17.8333H3.16667C3.16667 24.416 8.52133 29.8333 15.1027 29.8333H17.8973C24.4787 29.8333 29.8333 24.416 29.8333 17.8333ZM22.58 13.2467C23.3613 12.4667 23.3613 11.1987 22.58 10.4187C21.7987 9.63867 20.532 9.63867 19.752 10.4187C18.972 11.2 18.972 12.4667 19.752 13.2467C20.532 14.0267 21.8 14.028 22.58 13.2467ZM29.8333 12.5H32.5C32.5 5.88267 27.116 0.5 20.5 0.5V3.16667C25.6467 3.16667 29.8333 7.35467 29.8333 12.5ZM25.1667 12.5H27.8333C27.8333 8.45733 24.544 5.16667 20.5 5.16667V7.83333C23.0733 7.83333 25.1667 9.92667 25.1667 12.5ZM16.5 27.1667C22.3813 27.1667 27.1667 22.3813 27.1667 16.5V15.1667H24.5V16.5C24.5 20.912 20.912 24.5 16.5 24.5C12.544 24.5 9.25867 21.6107 8.62 17.8333H13.8333V15.1667H8.5V12.5H13.8333V9.83333H8.62C9.25733 6.056 12.5427 3.16667 16.5 3.16667C16.9547 3.16667 17.3987 3.21333 17.8333 3.28667V0.592C17.396 0.537333 16.952 0.5 16.5 0.5C10.6187 0.5 5.83333 5.28533 5.83333 11.1667V16.5C5.83333 22.3813 10.6187 27.1667 16.5 27.1667Z" fill="white"/>
</g>
<defs>
<clipPath id="clip0_138_2456">
<rect width="32" height="32" fill="white" transform="translate(0.5 0.5)"/>
</clipPath>
</defs>
</svg>
